<?xml version="1.0" encoding="UTF-8"?>
<!DOCTYPE svg PUBLIC "-//W3C//DTD SVG 1.1//EN" "http://www.w3.org/Graphics/SVG/1.1/DTD/svg11.dtd">
<!-- Creator: CorelDRAW -->
<svg xmlns="http://www.w3.org/2000/svg" xml:space="preserve" width="50mm" height="10mm" style="shape-rendering:geometricPrecision; text-rendering:geometricPrecision; image-rendering:optimizeQuality; fill-rule:evenodd; clip-rule:evenodd"
viewBox="0 0 50 10"
 xmlns:xlink="http://www.w3.org/1999/xlink">
 <defs>
  <style type="text/css">
   <![CDATA[
    .fil3 {fill:black}
    .fil2 {fill:#E1CB08}
    .fil1 {fill:#F8E009}
    .fil4 {fill:#FFFFFD}
    .fil0 {fill:#FEFEFE;fill-rule:nonzero}
   ]]>
  </style>
 </defs>
 <g id="Capa_x0020_1">
  <metadata id="CorelCorpID_0Corel-Layer"/>
  <path class="fil0" d="M11.8456 7.4053l0 -6.0607 2.2747 0c0.4628,0 0.834,0.062 1.1134,0.1834 0.2808,0.1228 0.4995,0.3119 0.6576,0.5673 0.158,0.254 0.2384,0.5207 0.2384,0.8001 0,0.2582 -0.0705,0.5023 -0.2116,0.7309 -0.1397,0.2286 -0.3528,0.4135 -0.6365,0.5546 0.3669,0.1072 0.6478,0.2907 0.8453,0.5489 0.1976,0.2597 0.2963,0.5659 0.2963,0.9187 0,0.2836 -0.0606,0.5475 -0.1806,0.7916 -0.1199,0.2441 -0.2681,0.4318 -0.4445,0.5644 -0.1764,0.1327 -0.3979,0.2315 -0.6632,0.2992 -0.2653,0.0677 -0.5913,0.1016 -0.9779,0.1016l-2.3114 0zm0.8029 -3.5137l1.3109 0c0.3542,0 0.6096,-0.024 0.7649,-0.0705 0.2032,-0.0607 0.357,-0.1609 0.46,-0.302 0.103,-0.1411 0.1552,-0.3175 0.1552,-0.5292 0,-0.2004 -0.048,-0.3782 -0.1439,-0.5306 -0.0974,-0.1538 -0.2357,-0.2582 -0.4135,-0.3146 -0.1792,-0.0565 -0.4868,-0.0847 -0.9229,-0.0847l-1.2107 0 0 1.8316zm0 2.7983l1.5085 0c0.2596,0 0.4417,-0.0099 0.5461,-0.0283 0.1848,-0.0338 0.3387,-0.0889 0.4628,-0.1665 0.1242,-0.0762 0.2258,-0.1891 0.3063,-0.3358 0.079,-0.1482 0.1199,-0.3175 0.1199,-0.5108 0,-0.2258 -0.0579,-0.422 -0.1736,-0.5899 -0.1157,-0.1665 -0.2766,-0.2836 -0.4826,-0.3514 -0.2046,-0.0663 -0.5009,-0.1001 -0.8862,-0.1001l-1.4012 0 0 2.0828z"/>
  <path id="1" class="fil0" d="M20.3095 7.4053l0 -0.6449c-0.3429,0.4967 -0.8072,0.7437 -1.3942,0.7437 -0.2582,0 -0.501,-0.0494 -0.7253,-0.1482 -0.2244,-0.0988 -0.3909,-0.2244 -0.4996,-0.3739 -0.11,-0.151 -0.1862,-0.3345 -0.23,-0.5518 -0.0296,-0.1467 -0.0451,-0.3782 -0.0451,-0.6957l0 -2.7192 0.7436 0 0 2.4342c0,0.3895 0.0155,0.6505 0.0452,0.786 0.048,0.1961 0.1467,0.3485 0.2977,0.4614 0.1524,0.1115 0.3401,0.1665 0.5631,0.1665 0.2229,0 0.4318,-0.0564 0.6279,-0.1707 0.1962,-0.1143 0.3344,-0.2709 0.4149,-0.4671 0.0818,-0.1975 0.1227,-0.484 0.1227,-0.858l0 -2.3523 0.7437 0 0 4.39 -0.6646 0z"/>
  <path id="12" class="fil0" d="M21.8434 6.0944l0.7351 -0.1157c0.041,0.2949 0.1567,0.5207 0.3458,0.6787 0.1877,0.1566 0.4515,0.2357 0.7916,0.2357 0.3415,0 0.5955,-0.0706 0.7606,-0.2089 0.1651,-0.1397 0.2484,-0.3034 0.2484,-0.4896 0,-0.1694 -0.0734,-0.3006 -0.2202,-0.398 -0.1016,-0.0663 -0.3556,-0.1496 -0.7606,-0.2512 -0.5447,-0.1382 -0.9243,-0.2568 -1.1345,-0.3584 -0.2103,-0.1002 -0.3711,-0.2399 -0.4798,-0.4177 -0.1086,-0.1778 -0.1637,-0.3739 -0.1637,-0.5884 0,-0.1961 0.0452,-0.3768 0.1355,-0.5433 0.0889,-0.1679 0.2117,-0.3062 0.3655,-0.4163 0.1157,-0.0846 0.2737,-0.158 0.4727,-0.2173 0.2004,-0.0592 0.4149,-0.0889 0.6435,-0.0889 0.3443,0 0.6463,0.0508 0.9073,0.1496 0.2611,0.0988 0.453,0.2328 0.5772,0.4022 0.1241,0.1707 0.2088,0.3965 0.2554,0.6801l-0.7268 0.1002c-0.0338,-0.2258 -0.1298,-0.4021 -0.2878,-0.5291 -0.1581,-0.127 -0.3824,-0.1905 -0.6717,-0.1905 -0.3415,0 -0.5856,0.0564 -0.731,0.1693 -0.1467,0.1129 -0.2201,0.2455 -0.2201,0.3965 0,0.0974 0.031,0.1835 0.0917,0.2611 0.0607,0.0804 0.1552,0.1453 0.2851,0.1989 0.0748,0.0268 0.2935,0.0903 0.6575,0.1891 0.5264,0.1411 0.8933,0.2554 1.1007,0.3457 0.2089,0.0889 0.3725,0.2202 0.4911,0.3909 0.1185,0.1708 0.1778,0.3824 0.1778,0.6364 0,0.2484 -0.0734,0.4812 -0.2173,0.7014 -0.1454,0.2187 -0.3542,0.388 -0.6266,0.508 -0.2723,0.1199 -0.5813,0.1792 -0.9257,0.1792 -0.5715,0 -1.0061,-0.1186 -1.3052,-0.3556 -0.2992,-0.2371 -0.4897,-0.5885 -0.5715,-1.0541z"/>
  <path id="123" class="fil0" d="M29.2391 5.7966l0.7309 0.096c-0.079,0.5038 -0.2836,0.8989 -0.6138,1.1839 -0.3288,0.2851 -0.7338,0.4276 -1.2136,0.4276 -0.5997,0 -1.0837,-0.1962 -1.4478,-0.5885 -0.3655,-0.3922 -0.5489,-0.9553 -0.5489,-1.6891 0,-0.4741 0.079,-0.889 0.2357,-1.2446 0.158,-0.3556 0.3965,-0.6223 0.7182,-0.8001 0.3203,-0.1778 0.6703,-0.2667 1.0471,-0.2667 0.4769,0 0.8678,0.1214 1.1698,0.3627 0.3034,0.2413 0.4981,0.5828 0.5842,1.0273l-0.7239 0.1115c-0.0692,-0.295 -0.1905,-0.5165 -0.3655,-0.6661 -0.175,-0.1482 -0.3866,-0.2229 -0.635,-0.2229 -0.3754,0 -0.6802,0.134 -0.9144,0.4035 -0.2343,0.2681 -0.3514,0.6929 -0.3514,1.2743 0,0.5898 0.1129,1.0188 0.3401,1.2869 0.2258,0.2667 0.5207,0.4008 0.8848,0.4008 0.2921,0 0.5348,-0.0903 0.7309,-0.2696 0.1962,-0.1792 0.3204,-0.4543 0.3726,-0.8269z"/>
  <path id="1234" class="fil0" d="M33.4725 6.8634c-0.2766,0.2343 -0.5419,0.3994 -0.7959,0.4967 -0.2554,0.096 -0.5292,0.144 -0.8213,0.144 -0.4826,0 -0.8523,-0.1171 -1.1119,-0.3528 -0.2583,-0.2357 -0.3881,-0.5376 -0.3881,-0.9031 0,-0.2159 0.048,-0.4121 0.1468,-0.5899 0.0973,-0.1778 0.2257,-0.3203 0.3838,-0.4275 0.1594,-0.1073 0.3372,-0.1891 0.5362,-0.2442 0.1454,-0.0381 0.3655,-0.0762 0.6604,-0.1114 0.6012,-0.072 1.0442,-0.1567 1.3279,-0.2569 0.0028,-0.1016 0.0042,-0.1665 0.0042,-0.1933 0,-0.3034 -0.0705,-0.5179 -0.2117,-0.6406 -0.189,-0.1694 -0.4727,-0.2526 -0.8466,-0.2526 -0.35,0 -0.6082,0.0607 -0.7761,0.1834 -0.1666,0.1228 -0.2893,0.3401 -0.3698,0.652l-0.7267 -0.1002c0.0663,-0.3105 0.175,-0.5631 0.326,-0.7536 0.151,-0.1919 0.3711,-0.34 0.6576,-0.4431 0.2864,-0.103 0.618,-0.1552 0.9962,-0.1552 0.3754,0 0.6788,0.0452 0.913,0.1327 0.2343,0.0889 0.4064,0.1989 0.5179,0.333 0.1101,0.1341 0.1863,0.302 0.2314,0.5066 0.024,0.127 0.0367,0.3556 0.0367,0.6858l0 0.992c0,0.6929 0.0155,1.1303 0.048,1.3123 0.031,0.1835 0.0945,0.3599 0.1877,0.5278l-0.7776 0c-0.0762,-0.1538 -0.127,-0.3344 -0.1481,-0.5419zm-0.0621 -1.6623c-0.271,0.1115 -0.6759,0.2046 -1.215,0.2823 -0.3062,0.0437 -0.5235,0.0931 -0.6491,0.1481 -0.127,0.0551 -0.2258,0.1355 -0.2935,0.2427 -0.0692,0.1059 -0.1044,0.223 -0.1044,0.3528 0,0.199 0.0762,0.3641 0.2257,0.4967 0.1496,0.1313 0.3698,0.1976 0.659,0.1976 0.2865,0 0.5419,-0.0621 0.7649,-0.1877 0.2229,-0.1256 0.388,-0.2977 0.4924,-0.515 0.0805,-0.168 0.12,-0.4163 0.12,-0.7437l0 -0.2738z"/>
  <path id="12345" class="fil0" d="M35.3168 9.0874l0 -6.0721 0.6773 0 0 0.5701c0.1595,-0.2229 0.3401,-0.3909 0.5419,-0.5024 0.2004,-0.1114 0.4445,-0.1679 0.731,-0.1679 0.3753,0 0.7055,0.0974 0.992,0.2893 0.2878,0.1933 0.5037,0.4657 0.6491,0.817 0.1468,0.3514 0.2201,0.7366 0.2201,1.1557 0,0.4488 -0.0804,0.8538 -0.2427,1.2136 -0.1609,0.3598 -0.3951,0.635 -0.7027,0.8269 -0.3076,0.1905 -0.6308,0.2865 -0.9695,0.2865 -0.2483,0 -0.4699,-0.0522 -0.6674,-0.1567 -0.1976,-0.1044 -0.3584,-0.237 -0.4854,-0.3965l0 2.1365 -0.7437 0zm0.6731 -3.8524c0,0.5644 0.1143,0.9821 0.3429,1.2531 0.2286,0.2695 0.5066,0.405 0.8312,0.405 0.3302,0 0.6138,-0.1397 0.8494,-0.4205 0.2357,-0.2794 0.3542,-0.7127 0.3542,-1.2997 0,-0.5602 -0.1157,-0.9779 -0.3457,-1.2573 -0.23,-0.278 -0.5052,-0.4177 -0.8241,-0.4177 -0.3175,0 -0.5983,0.1482 -0.8424,0.4445 -0.2441,0.2964 -0.3655,0.7282 -0.3655,1.2926z"/>
  <path id="123456" class="fil0" d="M40.0285 2.2011l0 -0.8565 0.7451 0 0 0.8565 -0.7451 0zm0 5.2042l0 -4.39 0.7451 0 0 4.39 -0.7451 0z"/>
  <path id="1234567" class="fil0" d="M44.911 5.9914l0.769 0.0945c-0.1213,0.4502 -0.3457,0.7987 -0.6731,1.0471 -0.3288,0.2469 -0.7479,0.3711 -1.2573,0.3711 -0.642,0 -1.1515,-0.1976 -1.5268,-0.5927 -0.3768,-0.3951 -0.5645,-0.9497 -0.5645,-1.6637 0,-0.7394 0.1905,-1.3123 0.5701,-1.7201 0.381,-0.4079 0.8735,-0.6125 1.4803,-0.6125 0.587,0 1.0668,0.2004 1.4379,0.5998 0.3726,0.3993 0.5588,0.9623 0.5588,1.6862 0,0.0452 -0.0014,0.1115 -0.0042,0.199l-3.2738 0c0.0268,0.4826 0.1637,0.8523 0.4092,1.1077 0.2456,0.2569 0.5504,0.3853 0.9173,0.3853 0.2723,0 0.5051,-0.072 0.6985,-0.2159 0.1933,-0.1426 0.3457,-0.3712 0.4586,-0.6858zm-2.4427 -1.2037l2.4511 0c-0.0324,-0.3683 -0.127,-0.6463 -0.2808,-0.8298 -0.237,-0.2864 -0.5447,-0.4303 -0.9214,-0.4303 -0.3415,0 -0.6294,0.1143 -0.8622,0.3429 -0.2329,0.2286 -0.3613,0.5348 -0.3867,0.9172z"/>
  <path id="12345678" class="fil0" d="M46.3179 6.0944l0.7351 -0.1157c0.041,0.2949 0.1567,0.5207 0.3458,0.6787 0.1877,0.1566 0.4515,0.2357 0.7916,0.2357 0.3415,0 0.5955,-0.0706 0.7606,-0.2089 0.1651,-0.1397 0.2484,-0.3034 0.2484,-0.4896 0,-0.1694 -0.0734,-0.3006 -0.2202,-0.398 -0.1016,-0.0663 -0.3556,-0.1496 -0.7606,-0.2512 -0.5447,-0.1382 -0.9243,-0.2568 -1.1345,-0.3584 -0.2103,-0.1002 -0.3711,-0.2399 -0.4798,-0.4177 -0.1086,-0.1778 -0.1637,-0.3739 -0.1637,-0.5884 0,-0.1961 0.0452,-0.3768 0.1355,-0.5433 0.0889,-0.1679 0.2117,-0.3062 0.3655,-0.4163 0.1157,-0.0846 0.2737,-0.158 0.4727,-0.2173 0.2004,-0.0592 0.4149,-0.0889 0.6435,-0.0889 0.3443,0 0.6463,0.0508 0.9073,0.1496 0.2611,0.0988 0.453,0.2328 0.5772,0.4022 0.1241,0.1707 0.2088,0.3965 0.2554,0.6801l-0.7268 0.1002c-0.0338,-0.2258 -0.1298,-0.4021 -0.2878,-0.5291 -0.1581,-0.127 -0.3824,-0.1905 -0.6717,-0.1905 -0.3415,0 -0.5856,0.0564 -0.731,0.1693 -0.1467,0.1129 -0.2201,0.2455 -0.2201,0.3965 0,0.0974 0.031,0.1835 0.0917,0.2611 0.0607,0.0804 0.1552,0.1453 0.2851,0.1989 0.0748,0.0268 0.2935,0.0903 0.6575,0.1891 0.5264,0.1411 0.8933,0.2554 1.1007,0.3457 0.2089,0.0889 0.3725,0.2202 0.4911,0.3909 0.1185,0.1708 0.1778,0.3824 0.1778,0.6364 0,0.2484 -0.0734,0.4812 -0.2173,0.7014 -0.1454,0.2187 -0.3542,0.388 -0.6266,0.508 -0.2723,0.1199 -0.5813,0.1792 -0.9257,0.1792 -0.5715,0 -1.0061,-0.1186 -1.3052,-0.3556 -0.2992,-0.2371 -0.4897,-0.5885 -0.5715,-1.0541z"/>
  <g id="_561417320">
   <path id="_557837264" class="fil1" d="M2.0542 5.4414l0.0184 0 0 -0.0184 0.0184 0 0 -0.0184 0.0552 0 0 0.0184 0.0184 0 0 0.0368 0.0184 0 0 0.1288 0.0184 0 0 0.2944 -0.0184 0 0 0.0183 -0.0552 0 0 -0.0183 -0.0184 0 0 -0.0185 -0.0184 0 0 -0.1287 -0.0184 0 0 -0.184 -0.0184 0 0 -0.1104zm-0.0736 -0.4599l0.0184 0 0 -0.0184 0.0184 0 0 -0.0184 0.0552 0 0 0.0184 0.0184 0 0 0.0184 0.0184 0 0 0.1288 0.0184 0 0 0.092 -0.0184 0 0 0.0183 -0.0736 0 0 -0.0183 -0.0184 0 0 -0.0553 -0.0184 0 0 -0.0735 -0.0184 0 0 -0.092zm1.2694 -2.8148l-0.1655 0 0 0.0184 -0.1288 0 0 0.0184 -0.0736 0 0 0.0184 -0.1104 0 0 0.0184 -0.0736 0 0 0.0184 -0.0552 0 0 0.0184 -0.0368 0 0 0.0184 -0.0736 0 0 0.0184 -0.0552 0 0 0.0184 -0.0368 0 0 0.0184 -0.0551 0 0 0.0183 -0.0368 0 0 0.0184 -0.0368 0 0 0.0184 -0.0368 0 0 0.0185 -0.0368 0 0 0.0183 -0.0368 0 0 0.0184 -0.0368 0 0 0.0184 -0.0368 0 0 0.0184 -0.0368 0 0 0.0184 -0.0184 0 0 0.0184 -0.0368 0 0 0.0184 -0.0184 0 0 0.0184 -0.0368 0 0 0.0184 -0.0368 0 0 0.0184 -0.0184 0 0 0.0184 -0.0368 0 0 0.0184 -0.0184 0 0 0.0184 -0.0368 0 0 0.0184 -0.0184 0 0 0.0184 -0.0184 0 0 0.0184 -0.0184 0 0 0.0184 -0.0184 0 0 0.0184 -0.0183 0 0 0.0184 -0.0185 0 0 0.0184 -0.0184 0 0 0.0184 -0.0184 0 0 0.0184 -0.0183 0 0 0.0184 -0.0185 0 0 0.0368 -0.0183 0 0 0.0184 -0.0184 0 0 0.0184 -0.0184 0 0 0.0368 -0.0184 0 0 0.0368 -0.0184 0 0 0.0368 -0.0184 0 0 0.0368 -0.0184 0 0 0.0368 -0.0184 0 0 0.0551 -0.0184 0 0 0.0552 -0.0184 0 0 0.0552 -0.0184 0 0 0.1288 -0.0184 0 0 0.4967 0.0184 0 0 0.1288 0.0184 0 0 0.1288 0.0184 0 0 0.0736 0.0184 0 0 0.0736 0.0184 0 0 0.0368 0.0184 0 0 0.0735 0.0184 0 0 0.0553 0.0184 0 0 0.0551 0.0184 0 0 0.0552 0.0184 0 0 0.0552 0.0184 0 0 0.0736 0.0183 0 0 0.0552 0.0185 0 0 0.0736 0.0183 0 0 0.0552 0.0184 0 0 0.092 0.0184 0 0 0.1288 0.0185 0 0 0.0735 0.0183 0 0 0.1472 0.0184 0 0 0.1104 0.0184 0 0 0.1656 0.0184 0 0 0.2024 0.0184 0 0 0.2575 0.0184 0 0 0.2576 0.0184 0 0 0.276 0.0184 0 0 0.3127 0.0184 0 0 0.4783 0.0184 0 0 0.2208 0.0184 0 0 0.1656 0.0184 0 0 0.1288 0.0184 0 0 0.1104 0.0184 0 0 0.0735 0.0184 0 0 0.0552 0.0184 0 0 0.0552 0.0184 0 0 0.0736 0.0184 0 0 0.0368 0.0184 0 0 0.0552 0.0184 0 0 0.0368 0.0184 0 0 0.0368 0.0184 0 0 0.0368 0.0184 0 0 0.0368 0.0184 0 0 0.0368 0.0184 0 0 0.0368 0.0184 0 0 0.0184 0.0184 0 0 0.0367 0.0184 0 0 0.0185 0.0184 0 0 0.0183 0.0184 0 0 0.0185 0.0184 0 0 0.0368 0.0184 0 0 0.0183 0.0184 0 0 0.0185 0.0183 0 0 0.0183 0.0368 0 0 0.0184 0.0185 0 0 0.0184 0.0183 0 0 0.0184 0.0184 0 0 0.0184 0.0368 0 0 0.0184 0.0184 0 0 0.0184 0.0368 0 0 0.0184 0.0368 0 0 0.0184 0.0368 0 0 0.0184 0.0552 0 0 0.0184 0.0736 0 0 0.0184 0.0552 0 0 0.0184 0.4599 0 0 -0.0184 0.092 0 0 -0.0184 0.0368 0 0 -0.0184 0.0736 0 0 -0.0184 0.0552 0 0 -0.0184 0.0368 0 0 -0.0184 0.0368 0 0 -0.0184 0.0184 0 0 -0.0184 0.0368 0 0 -0.0184 0.0184 0 0 -0.0184 0.0184 0 0 -0.0184 0.0368 0 0 -0.0184 0.0184 0 0 -0.0183 0.0184 0 0 -0.0185 0.0184 0 0 -0.0183 0.0184 0 0 -0.0368 0.0183 0 0 -0.0185 0.0184 0 0 -0.0183 0.0184 0 0 -0.0368 0.0185 0 0 -0.0368 0.0183 0 0 -0.0368 0.0184 0 0 -0.0368 0.0184 0 0 -0.0368 0.0184 0 0 -0.0552 0.0184 0 0 -0.0736 0.0184 0 0 -0.0736 0.0184 0 0 -0.5519 -0.0184 0 0 -0.1288 -0.0184 0 0 -0.1472 -0.0184 0 0 -0.0552 -0.0184 0 0 -0.1104 -0.0184 0 0 -0.0735 -0.0184 0 0 -0.0368 -0.0183 0 0 -0.0736 -0.0185 0 0 -0.0736 -0.0184 0 0 -0.0552 -0.0184 0 0 -0.0736 -0.0183 0 0 -0.0368 -0.0184 0 0 -0.0552 -0.0184 0 0 -0.0552 -0.0184 0 0 -0.0368 -0.0184 0 0 -0.0552 -0.0184 0 0 -0.0551 -0.0184 0 0 -0.0553 -0.0184 0 0 -0.0551 -0.0184 0 0 -0.0552 -0.0184 0 0 -0.0736 -0.0184 0 0 -0.1288 -0.0184 0 0 -0.092 -0.0184 0 0 -0.1288 -0.0184 0 0 -0.4231 0.0184 0 0 -0.1656 0.0184 0 0 -0.0368 0.0184 0 0 -0.092 0.0184 0 0 -0.0919 0.0184 0 0 -0.0553 0.0184 0 0 -0.0551 0.0184 0 0 -0.0368 0.0184 0 0 -0.0368 0.0184 0 0 -0.0552 0.0184 0 0 -0.0368 0.0184 0 0 -0.0368 0.0184 0 0 -0.0184 0.0184 0 0 -0.0368 0.0183 0 0 -0.0368 0.0184 0 0 -0.0184 0.0184 0 0 -0.0368 0.0185 0 0 -0.0184 0.0183 0 0 -0.0184 0.0184 0 0 -0.0368 0.0184 0 0 -0.0184 0.0184 0 0 -0.0184 0.0184 0 0 -0.0184 0.0184 0 0 -0.0184 0.0184 0 0 -0.0184 0.0184 0 0 -0.0184 0.0184 0 0 -0.0184 0.0184 0 0 -0.0368 0.0184 0 0 -0.0184 0.0184 0 0 -0.0183 0.0184 0 0 -0.0184 0.0184 0 0 -0.0184 0.0184 0 0 -0.0185 0.0184 0 0 -0.0183 0.0184 0 0 -0.0184 0.0184 0 0 -0.0184 0.0184 0 0 -0.0368 0.0184 0 0 -0.0184 0.0184 0 0 -0.0184 0.0184 0 0 -0.0184 0.0184 0 0 -0.0184 0.0184 0 0 -0.0184 0.0184 0 0 -0.0368 0.0184 0 0 -0.0184 0.0184 0 0 -0.0184 0.0184 0 0 -0.0184 0.0184 0 0 -0.0368 0.0184 0 0 -0.0184 0.0184 0 0 -0.0184 0.0184 0 0 -0.0368 0.0184 0 0 -0.0184 0.0183 0 0 -0.0184 0.0185 0 0 -0.0368 0.0183 0 0 -0.0184 0.0185 0 0 -0.0368 0.0183 0 0 -0.0184 0.0185 0 0 -0.0368 0.0183 0 0 -0.0368 0.0184 0 0 -0.0368 0.0184 0 0 -0.0183 0.0184 0 0 -0.0553 0.0184 0 0 -0.0367 0.0184 0 0 -0.0552 0.0184 0 0 -0.092 0.0184 0 0 -0.276 -0.0184 0 0 -0.1655 -0.0184 0 0 -0.0736 -0.0184 0 0 -0.0552 -0.0184 0 0 -0.0552 -0.0184 0 0 -0.0552 -0.0184 0 0 -0.0368 -0.0184 0 0 -0.0368 -0.0183 0 0 -0.0368 -0.0185 0 0 -0.0368 -0.0183 0 0 -0.0184 -0.0185 0 0 -0.0368 -0.0183 0 0 -0.0184 -0.0185 0 0 -0.0184 -0.0183 0 0 -0.0368 -0.0184 0 0 -0.0184 -0.0184 0 0 -0.0184 -0.0184 0 0 -0.0184 -0.0184 0 0 -0.0184 -0.0184 0 0 -0.0184 -0.0184 0 0 -0.0184 -0.0368 0 0 -0.0183 -0.0184 0 0 -0.0185 -0.0184 0 0 -0.0184 -0.0368 0 0 -0.0184 -0.0184 0 0 -0.0183 -0.0368 0 0 -0.0184 -0.0368 0 0 -0.0184 -0.0368 0 0 -0.0184 -0.0368 0 0 -0.0184 -0.0368 0 0 -0.0184 -0.0552 0 0 -0.0184 -0.0552 0 0 -0.0184 -0.0735 0 0 -0.0184 -0.0369 0 0 -0.0184 -0.1287 0 0 -0.0184 -0.1656 0 0 -0.0184 -0.2944 0 0 0.0184z"/>
   <polygon id="_557836448" class="fil1" points="6.6719,2.6082 6.6719,2.6266 6.6536,2.6266 6.6536,2.645 6.6352,2.645 6.6352,2.6818 6.6168,2.6818 6.6168,2.7002 6.5984,2.7002 6.5984,2.737 6.58,2.737 6.58,2.7738 6.5616,2.7738 6.5616,2.8106 6.5432,2.8106 6.5432,2.8658 6.5248,2.8658 6.5248,2.921 6.5064,2.921 6.5064,2.9946 6.488,2.9946 6.488,3.0865 6.4696,3.0865 6.4696,3.1969 6.4512,3.1969 6.4512,3.5649 6.4696,3.5649 6.4696,3.6201 6.488,3.6201 6.488,3.6753 6.5064,3.6753 6.5064,3.7121 6.5248,3.7121 6.5248,3.7489 6.5432,3.7489 6.5432,3.7856 6.5616,3.7856 6.5616,3.8224 6.58,3.8224 6.58,3.8592 6.5984,3.8592 6.5984,3.8776 6.6168,3.8776 6.6168,3.9144 6.6352,3.9144 6.6352,3.9328 6.6536,3.9328 6.6536,3.9696 6.6719,3.9696 6.6719,3.988 6.6904,3.988 6.6904,4.0248 6.7087,4.0248 6.7087,4.0432 6.7272,4.0432 6.7272,4.0616 6.7455,4.0616 6.7455,4.08 6.7639,4.08 6.7639,4.1168 6.7823,4.1168 6.7823,4.1352 6.8007,4.1352 6.8007,4.1536 6.8191,4.1536 6.8191,4.1904 6.8375,4.1904 6.8375,4.2088 6.8559,4.2088 6.8559,4.2272 6.8743,4.2272 6.8743,4.2456 6.8927,4.2456 6.8927,4.264 6.9111,4.264 6.9111,4.3008 6.9295,4.3008 6.9295,4.3192 6.9479,4.3192 6.9479,4.3376 6.9663,4.3376 6.9663,4.356 6.9847,4.356 6.9847,4.3744 7.0031,4.3744 7.0031,4.3928 7.0215,4.3928 7.0215,4.4111 7.0399,4.4111 7.0399,4.4296 7.0583,4.4296 7.0583,4.4664 7.0767,4.4664 7.0767,4.4847 7.0951,4.4847 7.0951,4.5031 7.1135,4.5031 7.1135,4.5215 7.1319,4.5215 7.1319,4.5399 7.1503,4.5399 7.1503,4.5583 7.1687,4.5583 7.1687,4.5767 7.1871,4.5767 7.1871,4.5951 7.2055,4.5951 7.2055,4.6135 7.2239,4.6135 7.2239,4.6319 7.2423,4.6319 7.2423,4.6687 7.2607,4.6687 7.2607,4.6871 7.2791,4.6871 7.2791,4.7055 7.2975,4.7055 7.2975,4.7239 7.3158,4.7239 7.3158,4.7607 7.3343,4.7607 7.3343,4.7791 7.3526,4.7791 7.3526,4.8159 7.3711,4.8159 7.3711,4.8527 7.3894,4.8527 7.3894,4.8711 7.4079,4.8711 7.4079,4.9079 7.4262,4.9079 7.4262,4.9447 7.4447,4.9447 7.4447,4.9815 7.463,4.9815 7.463,5.0183 7.4814,5.0183 7.4814,5.0735 7.4998,5.0735 7.4998,5.1103 7.5182,5.1103 7.5182,5.1655 7.5366,5.1655 7.5366,5.2206 7.555,5.2206 7.555,5.2942 7.5734,5.2942 7.5734,5.4046 7.5918,5.4046 7.5918,5.515 7.6102,5.515 7.6102,6.1221 7.5918,6.1221 7.5918,6.2141 7.5734,6.2141 7.5734,6.3245 7.555,6.3245 7.555,6.3797 7.5366,6.3797 7.5366,6.4533 7.5182,6.4533 7.5182,6.5085 7.4998,6.5085 7.4998,6.5821 7.4814,6.5821 7.4814,6.6373 7.463,6.6373 7.463,6.6924 7.4447,6.6924 7.4447,6.7292 7.4262,6.7292 7.4262,6.7844 7.4079,6.7844 7.4079,6.8396 7.3894,6.8396 7.3894,6.8948 7.3711,6.8948 7.3711,6.9316 7.3526,6.9316 7.3526,7.0052 7.3343,7.0052 7.3343,7.0604 7.3158,7.0604 7.3158,7.1156 7.2975,7.1156 7.2975,7.2076 7.2791,7.2076 7.2791,7.2628 7.2607,7.2628 7.2607,7.3363 7.2423,7.3363 7.2423,7.4099 7.2239,7.4099 7.2239,7.5019 7.2055,7.5019 7.2055,7.6491 7.1871,7.6491 7.1871,7.8883 7.1687,7.8883 7.1687,8.1826 7.1871,8.1826 7.1871,8.2746 7.2055,8.2746 7.2055,8.385 7.2239,8.385 7.2239,8.4402 7.2423,8.4402 7.2423,8.4954 7.2607,8.4954 7.2607,8.5322 7.2791,8.5322 7.2791,8.569 7.2975,8.569 7.2975,8.6058 7.3158,8.6058 7.3158,8.6425 7.3343,8.6425 7.3343,8.661 7.3526,8.661 7.3526,8.6978 7.3711,8.6978 7.3711,8.7161 7.3894,8.7161 7.3894,8.7346 7.4079,8.7346 7.4079,8.7529 7.4262,8.7529 7.4262,8.7714 7.4447,8.7714 7.4447,8.7897 7.463,8.7897 7.463,8.8081 7.4814,8.8081 7.4814,8.8265 7.4998,8.8265 7.4998,8.8449 7.5366,8.8449 7.5366,8.8633 7.5734,8.8633 7.5734,8.8817 7.5918,8.8817 7.5918,8.9001 7.6286,8.9001 7.6286,8.9185 7.6654,8.9185 7.6654,8.9369 7.7206,8.9369 7.7206,8.9553 7.7574,8.9553 7.7574,8.9737 7.831,8.9737 7.831,8.9921 7.923,8.9921 7.923,9.0105 8.3461,9.0105 8.3461,8.9921 8.4565,8.9921 8.4565,8.9737 8.5117,8.9737 8.5117,8.9553 8.5669,8.9553 8.5669,8.9369 8.6037,8.9369 8.6037,8.9185 8.6405,8.9185 8.6405,8.9001 8.6589,8.9001 8.6589,8.8817 8.6957,8.8817 8.6957,8.8633 8.7141,8.8633 8.7141,8.8449 8.7509,8.8449 8.7509,8.8265 8.7693,8.8265 8.7693,8.7714 8.7876,8.7714 8.7876,8.7161 8.806,8.7161 8.806,8.661 8.8245,8.661 8.8245,8.6058 8.8428,8.6058 8.8428,8.569 8.8612,8.569 8.8612,8.477 8.8796,8.477 8.8796,8.4218 8.898,8.4218 8.898,8.3482 8.9164,8.3482 8.9164,8.2378 8.9348,8.2378 8.9348,8.1274 8.9532,8.1274 8.9532,7.8699 8.9716,7.8699 8.9716,7.5755 8.99,7.5755 8.99,7.1892 9.0084,7.1892 9.0084,6.8212 9.0268,6.8212 9.0268,6.4717 9.0452,6.4717 9.0452,6.2877 9.0636,6.2877 9.0636,6.1037 9.082,6.1037 9.082,5.9381 9.1004,5.9381 9.1004,5.7726 9.1188,5.7726 9.1188,5.6622 9.1372,5.6622 9.1372,5.515 9.1556,5.515 9.1556,5.4414 9.174,5.4414 9.174,5.3126 9.1924,5.3126 9.1924,5.2574 9.2108,5.2574 9.2108,5.1838 9.2292,5.1838 9.2292,5.0919 9.2476,5.0919 9.2476,5.0367 9.266,5.0367 9.266,4.9815 9.2844,4.9815 9.2844,4.9263 9.3028,4.9263 9.3028,4.8711 9.3212,4.8711 9.3212,4.8343 9.3396,4.8343 9.3396,4.7607 9.358,4.7607 9.358,4.7239 9.3764,4.7239 9.3764,4.6135 9.3948,4.6135 9.3948,4.5583 9.4132,4.5583 9.4132,4.448 9.4316,4.448 9.4316,4.356 9.4499,4.356 9.4499,4.172 9.4684,4.172 9.4684,3.804 9.4499,3.804 9.4499,3.6753 9.4316,3.6753 9.4316,3.6201 9.4132,3.6201 9.4132,3.5465 9.3948,3.5465 9.3948,3.4913 9.3764,3.4913 9.3764,3.4545 9.358,3.4545 9.358,3.3993 9.3396,3.3993 9.3396,3.3625 9.3212,3.3625 9.3212,3.3257 9.3028,3.3257 9.3028,3.3073 9.2844,3.3073 9.2844,3.2705 9.266,3.2705 9.266,3.2521 9.2476,3.2521 9.2476,3.2153 9.2292,3.2153 9.2292,3.1969 9.2108,3.1969 9.2108,3.1785 9.1924,3.1785 9.1924,3.1417 9.174,3.1417 9.174,3.1233 9.1556,3.1233 9.1556,3.105 9.1372,3.105 9.1372,3.0865 9.1188,3.0865 9.1188,3.0682 9.1004,3.0682 9.1004,3.0497 9.082,3.0497 9.082,3.0314 9.0636,3.0314 9.0636,3.0129 9.0268,3.0129 9.0268,2.9946 9.0084,2.9946 9.0084,2.9761 8.99,2.9761 8.99,2.9578 8.9532,2.9578 8.9532,2.9394 8.9348,2.9394 8.9348,2.921 8.898,2.921 8.898,2.9026 8.8796,2.9026 8.8796,2.8842 8.8428,2.8842 8.8428,2.8658 8.806,2.8658 8.806,2.8474 8.7693,2.8474 8.7693,2.829 8.7509,2.829 8.7509,2.8106 8.7141,2.8106 8.7141,2.7922 8.6773,2.7922 8.6773,2.7738 8.6405,2.7738 8.6405,2.7554 8.6037,2.7554 8.6037,2.737 8.5669,2.737 8.5669,2.7186 8.5301,2.7186 8.5301,2.7002 8.4933,2.7002 8.4933,2.6818 8.4565,2.6818 8.4565,2.6634 8.4013,2.6634 8.4013,2.645 8.3461,2.645 8.3461,2.6266 8.3093,2.6266 8.3093,2.6082 8.2357,2.6082 8.2357,2.5898 8.1805,2.5898 8.1805,2.5714 8.1069,2.5714 8.1069,2.553 8.0334,2.553 8.0334,2.5346 7.9414,2.5346 7.9414,2.5162 7.8678,2.5162 7.8678,2.4978 7.739,2.4978 7.739,2.4794 7.6102,2.4794 7.6102,2.461 7.2423,2.461 7.2423,2.4794 7.1319,2.4794 7.1319,2.4978 6.9847,2.4978 6.9847,2.5162 6.9479,2.5162 6.9479,2.5346 6.8743,2.5346 6.8743,2.553 6.8191,2.553 6.8191,2.5714 6.7639,2.5714 6.7639,2.5898 6.7272,2.5898 6.7272,2.6082 "/>
   <polygon id="_557836736" class="fil2" points="6.6719,2.6082 6.7272,2.6082 6.7272,2.5898 6.7639,2.5898 6.7639,2.5714 6.8191,2.5714 6.8191,2.553 6.8743,2.553 6.8743,2.5346 6.9479,2.5346 6.9479,2.5162 6.9847,2.5162 6.9847,2.4978 7.1319,2.4978 7.1319,2.4794 7.2423,2.4794 7.2423,2.461 7.6102,2.461 7.6102,2.4794 7.739,2.4794 7.739,2.4978 7.8678,2.4978 7.8678,2.5162 7.9414,2.5162 7.9414,2.5346 8.0334,2.5346 8.0334,2.553 8.1069,2.553 8.1069,2.5714 8.1805,2.5714 8.1805,2.5898 8.2357,2.5898 8.2357,2.6082 8.3093,2.6082 8.3093,2.6266 8.3461,2.6266 8.3461,2.645 8.4013,2.645 8.4013,2.6634 8.4565,2.6634 8.4565,2.6818 8.4933,2.6818 8.4933,2.7002 8.5301,2.7002 8.5301,2.7186 8.5669,2.7186 8.5669,2.737 8.6037,2.737 8.6037,2.7554 8.6405,2.7554 8.6405,2.7738 8.6773,2.7738 8.6773,2.7922 8.7141,2.7922 8.7141,2.8106 8.7509,2.8106 8.7509,2.829 8.7693,2.829 8.7693,2.8474 8.806,2.8474 8.806,2.8658 8.8428,2.8658 8.8428,2.8842 8.8796,2.8842 8.8796,2.9026 8.898,2.9026 8.898,2.921 8.9348,2.921 8.9348,2.9394 8.9532,2.9394 8.9532,2.9578 8.99,2.9578 8.99,2.9761 9.0084,2.9761 9.0084,2.9946 9.0268,2.9946 9.0268,3.0129 9.0636,3.0129 9.0636,3.0314 9.082,3.0314 9.082,3.0497 9.1004,3.0497 9.1004,3.0682 9.1188,3.0682 9.1188,3.0865 9.1372,3.0865 9.1372,3.105 9.1556,3.105 9.1556,3.1233 9.174,3.1233 9.174,3.1417 9.1924,3.1417 9.1924,3.1785 9.2108,3.1785 9.2108,3.1969 9.2292,3.1969 9.2292,3.2153 9.2476,3.2153 9.2476,3.2521 9.266,3.2521 9.266,3.2705 9.2844,3.2705 9.2844,3.3073 9.3028,3.3073 9.3028,3.3257 9.3212,3.3257 9.3212,3.3625 9.3396,3.3625 9.3396,3.3993 9.358,3.3993 9.358,3.4545 9.3764,3.4545 9.3764,3.4913 9.3948,3.4913 9.3948,3.5465 9.4132,3.5465 9.4132,3.6201 9.4316,3.6201 9.4316,3.6753 9.4499,3.6753 9.4499,3.804 9.4684,3.804 9.4684,4.172 9.4499,4.172 9.4499,4.356 9.4316,4.356 9.4316,4.448 9.4132,4.448 9.4132,4.5583 9.3948,4.5583 9.3948,4.6135 9.3764,4.6135 9.3764,4.7239 9.358,4.7239 9.358,4.7607 9.3396,4.7607 9.3396,4.8343 9.3212,4.8343 9.3212,4.8711 9.3028,4.8711 9.3028,4.9263 9.2844,4.9263 9.2844,4.9815 9.266,4.9815 9.266,5.0367 9.2476,5.0367 9.2476,5.0919 9.2292,5.0919 9.2292,5.1838 9.2108,5.1838 9.2108,5.2574 9.1924,5.2574 9.1924,5.3126 9.174,5.3126 9.174,5.4414 9.1556,5.4414 9.1556,5.515 9.1372,5.515 9.1372,5.6622 9.1188,5.6622 9.1188,5.7726 9.1004,5.7726 9.1004,5.9381 9.082,5.9381 9.082,6.1037 9.0636,6.1037 9.0636,6.2877 9.0452,6.2877 9.0452,6.4717 9.0268,6.4717 9.0268,6.8212 9.0084,6.8212 9.0084,7.1892 8.99,7.1892 8.99,7.5755 8.9716,7.5755 8.9716,7.8699 8.9532,7.8699 8.9532,8.1274 8.9348,8.1274 8.9348,8.2378 8.9164,8.2378 8.9164,8.3482 8.898,8.3482 8.898,8.4218 8.8796,8.4218 8.8796,8.477 8.8612,8.477 8.8612,8.569 8.8428,8.569 8.8428,8.6058 8.8245,8.6058 8.8245,8.661 8.806,8.661 8.806,8.7161 8.7876,8.7161 8.7876,8.7714 8.7693,8.7714 8.7693,8.8081 8.7876,8.8081 8.7876,8.7897 8.806,8.7897 8.806,8.7714 8.8245,8.7714 8.8245,8.7529 8.8428,8.7529 8.8428,8.7346 8.8612,8.7346 8.8612,8.7161 8.8796,8.7161 8.8796,8.6978 8.898,8.6978 8.898,8.6793 8.9164,8.6793 8.9164,8.6425 8.9348,8.6425 8.9348,8.6242 8.9532,8.6242 8.9532,8.6058 8.9716,8.6058 8.9716,8.569 8.99,8.569 8.99,8.5322 9.0084,8.5322 9.0084,8.5138 9.0268,8.5138 9.0268,8.477 9.0452,8.477 9.0452,8.4402 9.0636,8.4402 9.0636,8.385 9.082,8.385 9.082,8.3482 9.1004,8.3482 9.1004,8.293 9.1188,8.293 9.1188,8.2378 9.1372,8.2378 9.1372,8.1826 9.1556,8.1826 9.1556,8.109 9.174,8.109 9.174,8.0354 9.1924,8.0354 9.1924,7.9435 9.2108,7.9435 9.2108,7.8883 9.2292,7.8883 9.2292,7.7595 9.2476,7.7595 9.2476,7.6123 9.266,7.6123 9.266,7.0788 9.2844,7.0788 9.2844,6.8764 9.3028,6.8764 9.3028,6.3797 9.3212,6.3797 9.3212,6.1037 9.3396,6.1037 9.3396,5.883 9.358,5.883 9.358,5.7542 9.3764,5.7542 9.3764,5.5334 9.3948,5.5334 9.3948,5.423 9.4132,5.423 9.4132,5.2942 9.4316,5.2942 9.4316,5.147 9.4499,5.147 9.4499,5.0735 9.4684,5.0735 9.4684,4.9447 9.4867,4.9447 9.4867,4.8895 9.5052,4.8895 9.5052,4.7791 9.5235,4.7791 9.5235,4.7423 9.542,4.7423 9.542,4.6687 9.5603,4.6687 9.5603,4.6135 9.5787,4.6135 9.5787,4.5583 9.5971,4.5583 9.5971,4.5031 9.6155,4.5031 9.6155,4.448 9.6339,4.448 9.6339,4.3744 9.6523,4.3744 9.6523,4.3376 9.6707,4.3376 9.6707,4.2824 9.6891,4.2824 9.6891,4.2088 9.7075,4.2088 9.7075,4.1352 9.7259,4.1352 9.7259,4.0432 9.7443,4.0432 9.7443,3.9144 9.7627,3.9144 9.7627,3.4361 9.7443,3.4361 9.7443,3.3257 9.7259,3.3257 9.7259,3.2521 9.7075,3.2521 9.7075,3.1601 9.6891,3.1601 9.6891,3.1233 9.6707,3.1233 9.6707,3.0865 9.6523,3.0865 9.6523,3.0497 9.6339,3.0497 9.6339,3.0129 9.6155,3.0129 9.6155,2.9761 9.5971,2.9761 9.5971,2.9394 9.5787,2.9394 9.5787,2.921 9.5603,2.921 9.5603,2.8842 9.542,2.8842 9.542,2.8658 9.5235,2.8658 9.5235,2.8474 9.5052,2.8474 9.5052,2.8106 9.4867,2.8106 9.4867,2.7922 9.4684,2.7922 9.4684,2.7738 9.4499,2.7738 9.4499,2.7554 9.4316,2.7554 9.4316,2.737 9.4132,2.737 9.4132,2.7186 9.3948,2.7186 9.3948,2.7002 9.358,2.7002 9.358,2.6818 9.3396,2.6818 9.3396,2.6634 9.3212,2.6634 9.3212,2.645 9.3028,2.645 9.3028,2.6266 9.266,2.6266 9.266,2.6082 9.2476,2.6082 9.2476,2.5898 9.2108,2.5898 9.2108,2.5714 9.174,2.5714 9.174,2.553 9.1372,2.553 9.1372,2.5346 9.1188,2.5346 9.1188,2.5162 9.082,2.5162 9.082,2.4978 9.0636,2.4978 9.0636,2.4794 9.0268,2.4794 9.0268,2.461 8.99,2.461 8.99,2.4426 8.9532,2.4426 8.9532,2.4243 8.9164,2.4243 8.9164,2.4058 8.8796,2.4058 8.8796,2.3874 8.8428,2.3874 8.8428,2.369 8.7876,2.369 8.7876,2.3507 8.7509,2.3507 8.7509,2.3323 8.6957,2.3323 8.6957,2.3139 8.6589,2.3139 8.6589,2.2955 8.6037,2.2955 8.6037,2.2771 8.5485,2.2771 8.5485,2.2587 8.4933,2.2587 8.4933,2.2403 8.4197,2.2403 8.4197,2.2219 8.3461,2.2219 8.3461,2.2035 8.2541,2.2035 8.2541,2.1851 8.1253,2.1851 8.1253,2.1667 7.9965,2.1667 7.9965,2.1483 7.6102,2.1483 7.6102,2.1667 7.4814,2.1667 7.4814,2.1851 7.3526,2.1851 7.3526,2.2035 7.2791,2.2035 7.2791,2.2219 7.2239,2.2219 7.2239,2.2403 7.1687,2.2403 7.1687,2.2587 7.1319,2.2587 7.1319,2.2771 7.0951,2.2771 7.0951,2.2955 7.0399,2.2955 7.0399,2.3139 7.0215,2.3139 7.0215,2.3323 6.9847,2.3323 6.9847,2.3507 6.9479,2.3507 6.9479,2.369 6.9111,2.369 6.9111,2.3874 6.8927,2.3874 6.8927,2.4058 6.8743,2.4058 6.8743,2.4243 6.8375,2.4243 6.8375,2.4426 6.8191,2.4426 6.8191,2.461 6.8007,2.461 6.8007,2.4794 6.7823,2.4794 6.7823,2.4978 6.7639,2.4978 6.7639,2.5162 6.7455,2.5162 6.7455,2.5346 6.7272,2.5346 6.7272,2.553 6.7087,2.553 6.7087,2.5714 6.6904,2.5714 6.6904,2.5898 6.6719,2.5898 "/>
   <path id="_557833808" class="fil3" d="M4.7218 3.6017l-0.0184 0 0 0.0552 -0.0184 0 0 0.0367 -0.0184 0 0 0.0553 -0.0184 0 0 0.0183 -0.0184 0 0 0.0368 -0.0184 0 0 0.0368 -0.0183 0 0 0.0368 -0.0185 0 0 0.0184 -0.0183 0 0 0.0368 -0.0185 0 0 0.0184 -0.0183 0 0 0.0368 -0.0185 0 0 0.0184 -0.0183 0 0 0.0184 -0.0184 0 0 0.0368 -0.0184 0 0 0.0184 -0.0184 0 0 0.0184 -0.0184 0 0 0.0368 -0.0184 0 0 0.0184 -0.0184 0 0 0.0184 -0.0184 0 0 0.0184 -0.0184 0 0 0.0368 -0.0184 0 0 0.0184 -0.0184 0 0 0.0184 -0.0184 0 0 0.0184 -0.0184 0 0 0.0184 -0.0184 0 0 0.0184 -0.0184 0 0 0.0368 -0.0184 0 0 0.0184 -0.0184 0 0 0.0184 -0.0184 0 0 0.0183 -0.0184 0 0 0.0185 -0.0184 0 0 0.0184 -0.0184 0 0 0.0184 -0.0184 0 0 0.0183 -0.0184 0 0 0.0184 -0.0184 0 0 0.0368 -0.0184 0 0 0.0184 -0.0184 0 0 0.0184 -0.0184 0 0 0.0184 -0.0184 0 0 0.0184 -0.0184 0 0 0.0184 -0.0184 0 0 0.0184 -0.0184 0 0 0.0184 -0.0184 0 0 0.0368 -0.0184 0 0 0.0184 -0.0183 0 0 0.0184 -0.0185 0 0 0.0368 -0.0184 0 0 0.0184 -0.0184 0 0 0.0368 -0.0183 0 0 0.0368 -0.0184 0 0 0.0184 -0.0184 0 0 0.0368 -0.0184 0 0 0.0368 -0.0184 0 0 0.0552 -0.0184 0 0 0.0368 -0.0184 0 0 0.0368 -0.0184 0 0 0.0551 -0.0184 0 0 0.0553 -0.0184 0 0 0.0919 -0.0184 0 0 0.092 -0.0184 0 0 0.0368 -0.0184 0 0 0.1656 -0.0184 0 0 0.4231 0.0184 0 0 0.1288 0.0184 0 0 0.092 0.0184 0 0 0.1288 0.0184 0 0 0.0736 0.0184 0 0 0.0552 0.0184 0 0 0.0551 0.0184 0 0 0.0553 0.0184 0 0 0.0551 0.0184 0 0 0.0552 0.0184 0 0 0.0368 0.0184 0 0 0.0552 0.0184 0 0 0.0552 0.0184 0 0 0.0368 0.0183 0 0 0.0736 0.0184 0 0 0.0552 0.0184 0 0 0.0736 0.0185 0 0 0.0736 0.0183 0 0 0.0368 0.0184 0 0 0.0735 0.0184 0 0 0.1104 0.0184 0 0 0.0552 0.0184 0 0 0.1472 0.0184 0 0 0.1288 0.0184 0 0 0.5519 -0.0184 0 0 0.0736 -0.0184 0 0 0.0736 -0.0184 0 0 0.0552 -0.0184 0 0 0.0368 -0.0184 0 0 0.0368 -0.0184 0 0 0.0368 -0.0183 0 0 0.0368 -0.0185 0 0 0.0368 -0.0184 0 0 0.0183 -0.0184 0 0 0.0185 -0.0183 0 0 0.0368 -0.0184 0 0 0.0183 -0.0184 0 0 0.0185 -0.0184 0 0 0.0183 -0.0184 0 0 0.0184 -0.0368 0 0 0.0184 -0.0184 0 0 0.0184 -0.0184 0 0 0.0184 -0.0368 0 0 0.0184 -0.0184 0 0 0.0184 -0.0368 0 0 0.0184 -0.0368 0 0 0.0184 -0.0552 0 0 0.0184 -0.0736 0 0 0.0184 -0.0368 0 0 0.0184 -0.092 0 0 0.0184 -0.4599 0 0 -0.0184 -0.0552 0 0 -0.0184 -0.0736 0 0 -0.0184 -0.0552 0 0 -0.0184 -0.0368 0 0 -0.0184 -0.0368 0 0 -0.0184 -0.0368 0 0 -0.0184 -0.0184 0 0 -0.0184 -0.0368 0 0 -0.0184 -0.0184 0 0 -0.0184 -0.0183 0 0 -0.0184 -0.0185 0 0 -0.0184 -0.0368 0 0 -0.0183 -0.0183 0 0 -0.0185 -0.0184 0 0 -0.0183 -0.0184 0 0 -0.0368 -0.0184 0 0 -0.0185 -0.0184 0 0 -0.0183 -0.0184 0 0 -0.0185 -0.0184 0 0 -0.0367 -0.0184 0 0 -0.0184 -0.0184 0 0 -0.0368 -0.0184 0 0 -0.0368 -0.0184 0 0 -0.0368 -0.0184 0 0 -0.0368 -0.0184 0 0 -0.0368 -0.0184 0 0 -0.0368 -0.0184 0 0 -0.0552 -0.0184 0 0 -0.0368 -0.0184 0 0 -0.0736 -0.0184 0 0 -0.0552 -0.0184 0 0 -0.0552 -0.0184 0 0 -0.0735 -0.0184 0 0 -0.1104 -0.0184 0 0 -0.1288 -0.0184 0 0 -0.1656 -0.0184 0 0 -0.2208 -0.0184 0 0 -0.4783 -0.0184 0 0 -0.3127 -0.0184 0 0 -0.276 -0.0184 0 0 -0.2576 -0.0184 0 0 -0.2575 -0.0184 0 0 -0.2024 -0.0184 0 0 -0.1656 -0.0184 0 0 -0.1104 -0.0184 0 0 -0.1472 -0.0183 0 0 -0.0735 -0.0185 0 0 -0.1288 -0.0184 0 0 -0.092 -0.0184 0 0 -0.0552 -0.0183 0 0 -0.0736 -0.0185 0 0 -0.0552 -0.0183 0 0 -0.0736 -0.0184 0 0 -0.0552 -0.0184 0 0 -0.0552 -0.0184 0 0 -0.0551 -0.0184 0 0 -0.0553 -0.0184 0 0 -0.0735 -0.0184 0 0 -0.0368 -0.0184 0 0 -0.0736 -0.0184 0 0 -0.0736 -0.0184 0 0 -0.1288 -0.0184 0 0 -0.1288 -0.0184 0 0 -0.4967 0.0184 0 0 -0.1288 0.0184 0 0 -0.0552 0.0184 0 0 -0.0552 0.0184 0 0 -0.0551 0.0184 0 0 -0.0368 0.0184 0 0 -0.0368 0.0184 0 0 -0.0368 0.0184 0 0 -0.0368 0.0184 0 0 -0.0368 0.0184 0 0 -0.0184 0.0184 0 0 -0.0184 0.0183 0 0 -0.0368 0.0185 0 0 -0.0184 0.0183 0 0 -0.0184 0.0184 0 0 -0.0184 0.0184 0 0 -0.0184 0.0185 0 0 -0.0184 0.0183 0 0 -0.0184 0.0184 0 0 -0.0184 0.0184 0 0 -0.0184 0.0184 0 0 -0.0184 0.0184 0 0 -0.0184 0.0368 0 0 -0.0184 0.0184 0 0 -0.0184 0.0368 0 0 -0.0184 0.0184 0 0 -0.0184 0.0368 0 0 -0.0184 0.0368 0 0 -0.0184 0.0184 0 0 -0.0184 0.0368 0 0 -0.0184 0.0184 0 0 -0.0184 0.0368 0 0 -0.0184 0.0368 0 0 -0.0184 0.0368 0 0 -0.0184 0.0368 0 0 -0.0183 0.0368 0 0 -0.0185 0.0368 0 0 -0.0184 0.0368 0 0 -0.0184 0.0368 0 0 -0.0183 0.0551 0 0 -0.0184 0.0368 0 0 -0.0184 0.0552 0 0 -0.0184 0.0736 0 0 -0.0184 0.0368 0 0 -0.0184 0.0552 0 0 -0.0184 0.0736 0 0 -0.0184 0.1104 0 0 -0.0184 0.0736 0 0 -0.0184 0.1288 0 0 -0.0184 0.1655 0 0 -0.0184 0.2944 0 0 0.0184 0.1656 0 0 0.0184 0.1287 0 0 0.0184 0.0369 0 0 0.0184 0.0735 0 0 0.0184 0.0552 0 0 0.0184 0.0552 0 0 0.0184 0.0368 0 0 0.0184 0.0368 0 0 0.0184 0.0368 0 0 0.0184 0.0368 0 0 0.0184 0.0368 0 0 0.0183 0.0184 0 0 0.0184 0.0368 0 0 0.0184 0.0184 0 0 0.0185 0.0184 0 0 0.0183 0.0368 0 0 0.0184 0.0184 0 0 0.0184 0.0184 0 0 0.0184 0.0184 0 0 0.0184 0.0184 0 0 0.0184 0.0184 0 0 0.0184 0.0184 0 0 0.0368 0.0183 0 0 0.0184 0.0185 0 0 0.0184 0.0183 0 0 0.0368 0.0185 0 0 0.0184 0.0183 0 0 0.0368 0.0185 0 0 0.0368 0.0183 0 0 0.0368 0.0184 0 0 0.0368 0.0184 0 0 0.0552 0.0184 0 0 0.0552 0.0184 0 0 0.0552 0.0184 0 0 0.0736 0.0184 0 0 0.1655 0.0184 0 0 0.276 -0.0184 0 0 0.092zm-1.3246 -1.5638l-0.2943 0 0 0.0184 -0.1288 0 0 0.0184 -0.092 0 0 0.0184 -0.092 0 0 0.0184 -0.0736 0 0 0.0184 -0.0736 0 0 0.0184 -0.0552 0 0 0.0184 -0.0552 0 0 0.0184 -0.0552 0 0 0.0184 -0.0551 0 0 0.0184 -0.0368 0 0 0.0184 -0.0552 0 0 0.0184 -0.0368 0 0 0.0184 -0.0368 0 0 0.0184 -0.0552 0 0 0.0184 -0.0184 0 0 0.0184 -0.0368 0 0 0.0184 -0.0368 0 0 0.0183 -0.0368 0 0 0.0184 -0.0368 0 0 0.0184 -0.0184 0 0 0.0185 -0.0368 0 0 0.0183 -0.0368 0 0 0.0184 -0.0184 0 0 0.0184 -0.0368 0 0 0.0184 -0.0368 0 0 0.0184 -0.0184 0 0 0.0184 -0.0368 0 0 0.0184 -0.0184 0 0 0.0184 -0.0184 0 0 0.0184 -0.0183 0 0 0.0184 -0.0369 0 0 0.0184 -0.0184 0 0 0.0184 -0.0183 0 0 0.0184 -0.0185 0 0 0.0184 -0.0183 0 0 0.0184 -0.0184 0 0 0.0184 -0.0184 0 0 0.0368 -0.0184 0 0 0.0184 -0.0184 0 0 0.0184 -0.0184 0 0 0.0184 -0.0184 0 0 0.0368 -0.0184 0 0 0.0184 -0.0184 0 0 0.0368 -0.0184 0 0 0.0368 -0.0184 0 0 0.0367 -0.0184 0 0 0.0368 -0.0184 0 0 0.0368 -0.0184 0 0 0.0553 -0.0184 0 0 0.0551 -0.0184 0 0 0.0552 -0.0184 0 0 0.0736 -0.0184 0 0 0.1288 -0.0184 0 0 0.4599 0.0184 0 0 0.1472 0.0184 0 0 0.092 0.0184 0 0 0.092 0.0184 0 0 0.0736 0.0184 0 0 0.0736 0.0184 0 0 0.0736 0.0184 0 0 0.0551 0.0184 0 0 0.0552 0.0184 0 0 0.0368 0.0184 0 0 0.0552 0.0184 0 0 0.0552 0.0184 0 0 0.0736 0.0184 0 0 0.0552 0.0184 0 0 0.0736 0.0184 0 0 0.092 0.0184 0 0 0.092 0.0184 0 0 0.1103 0.0184 0 0 0.1104 0.0183 0 0 0.1472 0.0185 0 0 0.1472 0.0183 0 0 0.184 0.0184 0 0 0.2023 0.0184 0 0 0.2392 0.0185 0 0 0.276 0.0183 0 0 0.3495 0.0184 0 0 0.4232 0.0184 0 0 0.3311 0.0184 0 0 0.184 0.0184 0 0 0.1104 0.0184 0 0 0.1103 0.0184 0 0 0.0736 0.0184 0 0 0.0736 0.0184 0 0 0.0736 0.0184 0 0 0.0552 0.0184 0 0 0.0552 0.0184 0 0 0.0552 0.0184 0 0 0.0368 0.0184 0 0 0.0552 0.0184 0 0 0.0368 0.0184 0 0 0.0368 0.0184 0 0 0.0368 0.0184 0 0 0.0184 0.0184 0 0 0.0367 0.0184 0 0 0.0368 0.0184 0 0 0.0185 0.0184 0 0 0.0183 0.0184 0 0 0.0368 0.0184 0 0 0.0185 0.0184 0 0 0.0183 0.0184 0 0 0.0184 0.0184 0 0 0.0184 0.0184 0 0 0.0184 0.0184 0 0 0.0184 0.0184 0 0 0.0184 0.0184 0 0 0.0184 0.0184 0 0 0.0184 0.0184 0 0 0.0184 0.0183 0 0 0.0184 0.0368 0 0 0.0184 0.0185 0 0 0.0184 0.0367 0 0 0.0184 0.0184 0 0 0.0184 0.0368 0 0 0.0184 0.0552 0 0 0.0184 0.0368 0 0 0.0184 0.0552 0 0 0.0184 0.0736 0 0 0.0184 0.092 0 0 0.0184 0.3863 0 0 -0.0184 0.1288 0 0 -0.0184 0.0736 0 0 -0.0184 0.0736 0 0 -0.0184 0.0552 0 0 -0.0184 0.0368 0 0 -0.0184 0.0368 0 0 -0.0184 0.0368 0 0 -0.0184 0.0368 0 0 -0.0184 0.0184 0 0 -0.0184 0.0368 0 0 -0.0184 0.0184 0 0 -0.0184 0.0184 0 0 -0.0184 0.0184 0 0 -0.0184 0.0367 0 0 -0.0184 0.0184 0 0 -0.0184 0.0185 0 0 -0.0368 0.0183 0 0 -0.0184 0.0184 0 0 -0.0183 0.0184 0 0 -0.0185 0.0184 0 0 -0.0368 0.0184 0 0 -0.0368 0.0184 0 0 -0.0183 0.0184 0 0 -0.0368 0.0184 0 0 -0.0368 0.0184 0 0 -0.0552 0.0184 0 0 -0.0552 0.0184 0 0 -0.0552 0.0184 0 0 -0.092 0.0184 0 0 -0.1104 0.0184 0 0 -0.4783 -0.0184 0 0 -0.1472 -0.0184 0 0 -0.1104 -0.0184 0 0 -0.092 -0.0184 0 0 -0.0919 -0.0184 0 0 -0.0736 -0.0184 0 0 -0.0736 -0.0184 0 0 -0.0736 -0.0184 0 0 -0.0552 -0.0184 0 0 -0.0552 -0.0184 0 0 -0.0552 -0.0184 0 0 -0.0736 -0.0184 0 0 -0.0368 -0.0184 0 0 -0.0552 -0.0183 0 0 -0.0552 -0.0185 0 0 -0.0551 -0.0184 0 0 -0.0552 -0.0184 0 0 -0.0369 -0.0183 0 0 -0.0551 -0.0184 0 0 -0.0736 -0.0184 0 0 -0.0736 -0.0184 0 0 -0.0736 -0.0184 0 0 -0.1104 -0.0184 0 0 -0.1288 -0.0184 0 0 -0.4599 0.0184 0 0 -0.1288 0.0184 0 0 -0.092 0.0184 0 0 -0.0735 0.0184 0 0 -0.0553 0.0184 0 0 -0.0551 0.0184 0 0 -0.0552 0.0183 0 0 -0.0368 0.0184 0 0 -0.0552 0.0184 0 0 -0.0368 0.0185 0 0 -0.0368 0.0183 0 0 -0.0184 0.0184 0 0 -0.0368 0.0184 0 0 -0.0184 0.0184 0 0 -0.0368 0.0184 0 0 -0.0184 0.0184 0 0 -0.0368 0.0184 0 0 -0.0184 0.0184 0 0 -0.0184 0.0184 0 0 -0.0184 0.0184 0 0 -0.0368 0.0184 0 0 -0.0184 0.0184 0 0 -0.0184 0.0184 0 0 -0.0184 0.0184 0 0 -0.0184 0.0184 0 0 -0.0184 0.0184 0 0 -0.0184 0.0184 0 0 -0.0184 0.0184 0 0 -0.0184 0.0184 0 0 -0.0184 0.0184 0 0 -0.0184 0.0184 0 0 -0.0367 0.0184 0 0 -0.0184 0.0184 0 0 -0.0184 0.0184 0 0 -0.0185 0.0184 0 0 -0.0183 0.0184 0 0 -0.0184 0.0184 0 0 -0.0184 0.0184 0 0 -0.0368 0.0184 0 0 -0.0184 0.0184 0 0 -0.0184 0.0184 0 0 -0.0184 0.0184 0 0 -0.0368 0.0184 0 0 -0.0184 0.0183 0 0 -0.0184 0.0185 0 0 -0.0184 0.0183 0 0 -0.0368 0.0185 0 0 -0.0184 0.0183 0 0 -0.0184 0.0185 0 0 -0.0368 0.0183 0 0 -0.0184 0.0184 0 0 -0.0368 0.0184 0 0 -0.0184 0.0184 0 0 -0.0368 0.0184 0 0 -0.0184 0.0184 0 0 -0.0368 0.0184 0 0 -0.0368 0.0184 0 0 -0.0184 0.0184 0 0 -0.0368 0.0184 0 0 -0.0368 0.0184 0 0 -0.0551 0.0184 0 0 -0.0368 0.0184 0 0 -0.0736 0.0184 0 0 -0.092 0.0184 0 0 -0.2024 -0.0184 0 0 -0.2023 -0.0184 0 0 -0.0921 -0.0184 0 0 -0.0735 -0.0184 0 0 -0.0552 -0.0184 0 0 -0.0552 -0.0184 0 0 -0.0552 -0.0184 0 0 -0.0368 -0.0184 0 0 -0.0368 -0.0184 0 0 -0.0368 -0.0184 0 0 -0.0368 -0.0184 0 0 -0.0184 -0.0184 0 0 -0.0368 -0.0184 0 0 -0.0184 -0.0184 0 0 -0.0368 -0.0183 0 0 -0.0184 -0.0185 0 0 -0.0184 -0.0183 0 0 -0.0184 -0.0185 0 0 -0.0184 -0.0183 0 0 -0.0183 -0.0185 0 0 -0.0185 -0.0183 0 0 -0.0184 -0.0184 0 0 -0.0184 -0.0184 0 0 -0.0183 -0.0184 0 0 -0.0184 -0.0184 0 0 -0.0184 -0.0368 0 0 -0.0184 -0.0184 0 0 -0.0184 -0.0368 0 0 -0.0184 -0.0184 0 0 -0.0184 -0.0368 0 0 -0.0184 -0.0368 0 0 -0.0184 -0.0368 0 0 -0.0184 -0.0368 0 0 -0.0184 -0.0368 0 0 -0.0184 -0.0552 0 0 -0.0184 -0.0368 0 0 -0.0184 -0.0736 0 0 -0.0184 -0.0552 0 0 -0.0184 -0.0919 0 0 -0.0184 -0.1104 0 0 -0.0184 -0.276 0 0 -0.0184 -0.0184 0 0 0.0184z"/>
   <path id="_557833712" class="fil3" d="M8.7693 8.8081l0 0.0184 -0.0184 0 0 0.0184 -0.0368 0 0 0.0184 -0.0184 0 0 0.0184 -0.0368 0 0 0.0184 -0.0184 0 0 0.0184 -0.0368 0 0 0.0184 -0.0368 0 0 0.0184 -0.0552 0 0 0.0184 -0.0552 0 0 0.0184 -0.1104 0 0 0.0184 -0.4231 0 0 -0.0184 -0.092 0 0 -0.0184 -0.0736 0 0 -0.0184 -0.0368 0 0 -0.0184 -0.0552 0 0 -0.0184 -0.0368 0 0 -0.0184 -0.0368 0 0 -0.0184 -0.0184 0 0 -0.0184 -0.0368 0 0 -0.0184 -0.0368 0 0 -0.0184 -0.0184 0 0 -0.0184 -0.0184 0 0 -0.0184 -0.0183 0 0 -0.0183 -0.0185 0 0 -0.0185 -0.0183 0 0 -0.0183 -0.0185 0 0 -0.0185 -0.0183 0 0 -0.0183 -0.0185 0 0 -0.0368 -0.0183 0 0 -0.0185 -0.0185 0 0 -0.0367 -0.0183 0 0 -0.0368 -0.0184 0 0 -0.0368 -0.0184 0 0 -0.0368 -0.0184 0 0 -0.0552 -0.0184 0 0 -0.0552 -0.0184 0 0 -0.1104 -0.0184 0 0 -0.092 -0.0184 0 0 -0.2943 0.0184 0 0 -0.2392 0.0184 0 0 -0.1472 0.0184 0 0 -0.092 0.0184 0 0 -0.0736 0.0184 0 0 -0.0735 0.0184 0 0 -0.0552 0.0184 0 0 -0.092 0.0183 0 0 -0.0552 0.0185 0 0 -0.0552 0.0183 0 0 -0.0736 0.0185 0 0 -0.0368 0.0183 0 0 -0.0552 0.0185 0 0 -0.0552 0.0183 0 0 -0.0552 0.0185 0 0 -0.0368 0.0183 0 0 -0.0551 0.0184 0 0 -0.0552 0.0184 0 0 -0.0736 0.0184 0 0 -0.0552 0.0184 0 0 -0.0736 0.0184 0 0 -0.0552 0.0184 0 0 -0.1104 0.0184 0 0 -0.092 0.0184 0 0 -0.6071 -0.0184 0 0 -0.1104 -0.0184 0 0 -0.1104 -0.0184 0 0 -0.0736 -0.0184 0 0 -0.0551 -0.0184 0 0 -0.0552 -0.0184 0 0 -0.0368 -0.0184 0 0 -0.0552 -0.0184 0 0 -0.0368 -0.0183 0 0 -0.0368 -0.0185 0 0 -0.0368 -0.0183 0 0 -0.0368 -0.0185 0 0 -0.0184 -0.0183 0 0 -0.0368 -0.0185 0 0 -0.0368 -0.0183 0 0 -0.0184 -0.0185 0 0 -0.0368 -0.0183 0 0 -0.0184 -0.0184 0 0 -0.0184 -0.0184 0 0 -0.0184 -0.0184 0 0 -0.0368 -0.0184 0 0 -0.0184 -0.0184 0 0 -0.0184 -0.0184 0 0 -0.0184 -0.0184 0 0 -0.0184 -0.0184 0 0 -0.0184 -0.0184 0 0 -0.0184 -0.0184 0 0 -0.0184 -0.0184 0 0 -0.0184 -0.0184 0 0 -0.0183 -0.0184 0 0 -0.0368 -0.0184 0 0 -0.0185 -0.0184 0 0 -0.0183 -0.0184 0 0 -0.0184 -0.0184 0 0 -0.0184 -0.0184 0 0 -0.0184 -0.0184 0 0 -0.0184 -0.0184 0 0 -0.0184 -0.0184 0 0 -0.0368 -0.0184 0 0 -0.0184 -0.0184 0 0 -0.0184 -0.0184 0 0 -0.0184 -0.0184 0 0 -0.0184 -0.0184 0 0 -0.0368 -0.0184 0 0 -0.0184 -0.0184 0 0 -0.0184 -0.0184 0 0 -0.0368 -0.0184 0 0 -0.0184 -0.0183 0 0 -0.0184 -0.0185 0 0 -0.0184 -0.0183 0 0 -0.0368 -0.0185 0 0 -0.0184 -0.0183 0 0 -0.0368 -0.0184 0 0 -0.0184 -0.0184 0 0 -0.0368 -0.0184 0 0 -0.0184 -0.0184 0 0 -0.0368 -0.0184 0 0 -0.0368 -0.0184 0 0 -0.0367 -0.0184 0 0 -0.0368 -0.0184 0 0 -0.0368 -0.0184 0 0 -0.0552 -0.0184 0 0 -0.0552 -0.0184 0 0 -0.368 0.0184 0 0 -0.1104 0.0184 0 0 -0.0919 0.0184 0 0 -0.0736 0.0184 0 0 -0.0552 0.0184 0 0 -0.0552 0.0184 0 0 -0.0368 0.0184 0 0 -0.0368 0.0184 0 0 -0.0368 0.0184 0 0 -0.0184 0.0184 0 0 -0.0368 0.0184 0 0 -0.0184 0.0183 0 0 -0.0368 0.0185 0 0 -0.0184 0.0183 0 0 -0.0184 0.0185 0 0 -0.0184 0.0183 0 0 -0.0184 0.0184 0 0 -0.0184 0.0184 0 0 -0.0184 0.0184 0 0 -0.0184 0.0184 0 0 -0.0184 0.0184 0 0 -0.0183 0.0368 0 0 -0.0185 0.0184 0 0 -0.0184 0.0184 0 0 -0.0184 0.0368 0 0 -0.0183 0.0368 0 0 -0.0184 0.0368 0 0 -0.0184 0.0184 0 0 -0.0184 0.0552 0 0 -0.0184 0.0368 0 0 -0.0184 0.0368 0 0 -0.0184 0.0552 0 0 -0.0184 0.0552 0 0 -0.0184 0.0735 0 0 -0.0184 0.1288 0 0 -0.0184 0.1288 0 0 -0.0184 0.3863 0 0 0.0184 0.1288 0 0 0.0184 0.1288 0 0 0.0184 0.092 0 0 0.0184 0.0736 0 0 0.0184 0.0736 0 0 0.0184 0.0552 0 0 0.0184 0.0552 0 0 0.0184 0.0552 0 0 0.0184 0.0368 0 0 0.0184 0.0552 0 0 0.0184 0.0367 0 0 0.0183 0.0552 0 0 0.0184 0.0368 0 0 0.0184 0.0368 0 0 0.0185 0.0368 0 0 0.0183 0.0368 0 0 0.0184 0.0368 0 0 0.0184 0.0368 0 0 0.0184 0.0184 0 0 0.0184 0.0368 0 0 0.0184 0.0184 0 0 0.0184 0.0368 0 0 0.0184 0.0368 0 0 0.0184 0.0368 0 0 0.0184 0.0184 0 0 0.0184 0.0368 0 0 0.0184 0.0184 0 0 0.0184 0.0184 0 0 0.0184 0.0184 0 0 0.0184 0.0368 0 0 0.0184 0.0184 0 0 0.0184 0.0184 0 0 0.0184 0.0183 0 0 0.0184 0.0185 0 0 0.0184 0.0183 0 0 0.0184 0.0185 0 0 0.0368 0.0183 0 0 0.0184 0.0185 0 0 0.0184 0.0183 0 0 0.0368 0.0184 0 0 0.0184 0.0184 0 0 0.0367 0.0184 0 0 0.0368 0.0184 0 0 0.0368 0.0184 0 0 0.0368 0.0184 0 0 0.0368 0.0184 0 0 0.0368 0.0184 0 0 0.092 0.0184 0 0 0.0736 0.0184 0 0 0.1104 0.0184 0 0 0.4783 -0.0184 0 0 0.1288 -0.0184 0 0 0.092 -0.0184 0 0 0.0736 -0.0184 0 0 0.0736 -0.0184 0 0 0.0552 -0.0184 0 0 0.0368 -0.0184 0 0 0.0736 -0.0184 0 0 0.0551 -0.0184 0 0 0.0552 -0.0184 0 0 0.0552 -0.0184 0 0 0.0552 -0.0183 0 0 0.0736 -0.0185 0 0 0.0368 -0.0183 0 0 0.1104 -0.0185 0 0 0.0552 -0.0183 0 0 0.1288 -0.0185 0 0 0.0735 -0.0183 0 0 0.1472 -0.0184 0 0 0.1288 -0.0184 0 0 0.1104 -0.0184 0 0 0.2208 -0.0184 0 0 0.1288 -0.0184 0 0 0.2207 -0.0184 0 0 0.276 -0.0184 0 0 0.4967 -0.0184 0 0 0.2024 -0.0184 0 0 0.5335 -0.0184 0 0 0.1472 -0.0184 0 0 0.1288 -0.0184 0 0 0.0552 -0.0184 0 0 0.0919 -0.0184 0 0 0.0736 -0.0184 0 0 0.0736 -0.0184 0 0 0.0552 -0.0184 0 0 0.0552 -0.0184 0 0 0.0552 -0.0184 0 0 0.0368 -0.0184 0 0 0.0552 -0.0184 0 0 0.0368 -0.0184 0 0 0.0368 -0.0184 0 0 0.0184 -0.0184 0 0 0.0368 -0.0184 0 0 0.0368 -0.0184 0 0 0.0184 -0.0184 0 0 0.0183 -0.0184 0 0 0.0368 -0.0184 0 0 0.0185 -0.0184 0 0 0.0183 -0.0184 0 0 0.0185 -0.0184 0 0 0.0183 -0.0183 0 0 0.0185 -0.0185 0 0 0.0183 -0.0184 0 0 0.0184 -0.0183 0zm-0.9935 -6.7702l-0.276 0 0 0.0184 -0.1104 0 0 0.0184 -0.0919 0 0 0.0184 -0.0736 0 0 0.0184 -0.0552 0 0 0.0184 -0.0552 0 0 0.0184 -0.0368 0 0 0.0184 -0.0552 0 0 0.0184 -0.0368 0 0 0.0184 -0.0368 0 0 0.0184 -0.0184 0 0 0.0184 -0.0368 0 0 0.0184 -0.0368 0 0 0.0184 -0.0184 0 0 0.0184 -0.0368 0 0 0.0184 -0.0184 0 0 0.0184 -0.0184 0 0 0.0184 -0.0184 0 0 0.0183 -0.0183 0 0 0.0184 -0.0368 0 0 0.0184 -0.0185 0 0 0.0185 -0.0183 0 0 0.0183 -0.0184 0 0 0.0368 -0.0184 0 0 0.0184 -0.0184 0 0 0.0184 -0.0184 0 0 0.0184 -0.0184 0 0 0.0368 -0.0184 0 0 0.0184 -0.0184 0 0 0.0368 -0.0184 0 0 0.0184 -0.0184 0 0 0.0368 -0.0184 0 0 0.0368 -0.0184 0 0 0.0552 -0.0184 0 0 0.0368 -0.0184 0 0 0.0552 -0.0184 0 0 0.0552 -0.0184 0 0 0.0551 -0.0184 0 0 0.0921 -0.0184 0 0 0.1287 -0.0184 0 0 0.3496 0.0184 0 0 0.092 0.0184 0 0 0.0551 0.0184 0 0 0.0368 0.0184 0 0 0.0368 0.0184 0 0 0.0368 0.0184 0 0 0.0368 0.0184 0 0 0.0368 0.0184 0 0 0.0368 0.0184 0 0 0.0184 0.0184 0 0 0.0368 0.0184 0 0 0.0184 0.0184 0 0 0.0368 0.0184 0 0 0.0184 0.0184 0 0 0.0368 0.0184 0 0 0.0184 0.0184 0 0 0.0184 0.0184 0 0 0.0368 0.0184 0 0 0.0184 0.0183 0 0 0.0184 0.0185 0 0 0.0368 0.0183 0 0 0.0184 0.0185 0 0 0.0184 0.0183 0 0 0.0184 0.0184 0 0 0.0184 0.0184 0 0 0.0368 0.0184 0 0 0.0184 0.0184 0 0 0.0184 0.0184 0 0 0.0184 0.0184 0 0 0.0183 0.0184 0 0 0.0185 0.0184 0 0 0.0368 0.0184 0 0 0.0183 0.0184 0 0 0.0184 0.0184 0 0 0.0184 0.0184 0 0 0.0184 0.0184 0 0 0.0184 0.0184 0 0 0.0184 0.0184 0 0 0.0184 0.0184 0 0 0.0184 0.0184 0 0 0.0368 0.0184 0 0 0.0184 0.0184 0 0 0.0184 0.0184 0 0 0.0184 0.0184 0 0 0.0184 0.0184 0 0 0.0184 0.0184 0 0 0.0184 0.0184 0 0 0.0368 0.0184 0 0 0.0184 0.0184 0 0 0.0368 0.0184 0 0 0.0184 0.0184 0 0 0.0368 0.0184 0 0 0.0184 0.0184 0 0 0.0368 0.0183 0 0 0.0368 0.0185 0 0 0.0368 0.0183 0 0 0.0552 0.0185 0 0 0.0368 0.0183 0 0 0.0551 0.0185 0 0 0.0553 0.0183 0 0 0.0735 0.0185 0 0 0.0736 0.0183 0 0 0.092 0.0184 0 0 0.1656 0.0184 0 0 0.2943 -0.0184 0 0 0.184 -0.0184 0 0 0.1104 -0.0183 0 0 0.092 -0.0185 0 0 0.0736 -0.0183 0 0 0.0552 -0.0185 0 0 0.0736 -0.0183 0 0 0.0368 -0.0185 0 0 0.0551 -0.0183 0 0 0.0552 -0.0185 0 0 0.0552 -0.0183 0 0 0.0552 -0.0184 0 0 0.0368 -0.0184 0 0 0.0552 -0.0184 0 0 0.0736 -0.0184 0 0 0.0552 -0.0184 0 0 0.0552 -0.0184 0 0 0.0736 -0.0184 0 0 0.0736 -0.0184 0 0 0.0735 -0.0184 0 0 0.0736 -0.0184 0 0 0.092 -0.0184 0 0 0.1104 -0.0184 0 0 0.1288 -0.0184 0 0 0.2392 -0.0184 0 0 0.1288 0.0184 0 0 0.2207 0.0184 0 0 0.092 0.0184 0 0 0.0736 0.0184 0 0 0.0552 0.0184 0 0 0.0552 0.0184 0 0 0.0368 0.0184 0 0 0.0368 0.0184 0 0 0.0368 0.0184 0 0 0.0368 0.0184 0 0 0.0368 0.0184 0 0 0.0183 0.0184 0 0 0.0185 0.0184 0 0 0.0367 0.0184 0 0 0.0184 0.0183 0 0 0.0184 0.0185 0 0 0.0184 0.0183 0 0 0.0184 0.0185 0 0 0.0184 0.0183 0 0 0.0184 0.0368 0 0 0.0184 0.0185 0 0 0.0184 0.0183 0 0 0.0184 0.0368 0 0 0.0184 0.0368 0 0 0.0184 0.0184 0 0 0.0184 0.0552 0 0 0.0184 0.0368 0 0 0.0184 0.0552 0 0 0.0184 0.0552 0 0 0.0184 0.092 0 0 0.0184 0.1288 0 0 0.0184 0.3679 0 0 -0.0184 0.1104 0 0 -0.0184 0.0736 0 0 -0.0184 0.0552 0 0 -0.0184 0.0368 0 0 -0.0184 0.0368 0 0 -0.0184 0.0368 0 0 -0.0184 0.0368 0 0 -0.0184 0.0368 0 0 -0.0184 0.0183 0 0 -0.0184 0.0184 0 0 -0.0184 0.0368 0 0 -0.0184 0.0184 0 0 -0.0184 0.0184 0 0 -0.0184 0.0184 0 0 -0.0184 0.0184 0 0 -0.0184 0.0184 0 0 -0.0184 0.0184 0 0 -0.0184 0.0184 0 0 -0.0184 0.0184 0 0 -0.0183 0.0184 0 0 -0.0368 0.0184 0 0 -0.0185 0.0184 0 0 -0.0183 0.0184 0 0 -0.0368 0.0184 0 0 -0.0368 0.0184 0 0 -0.0184 0.0184 0 0 -0.0368 0.0184 0 0 -0.0368 0.0184 0 0 -0.0368 0.0184 0 0 -0.0368 0.0184 0 0 -0.0552 0.0184 0 0 -0.0368 0.0184 0 0 -0.0552 0.0184 0 0 -0.0552 0.0184 0 0 -0.0552 0.0184 0 0 -0.0736 0.0184 0 0 -0.0735 0.0184 0 0 -0.092 0.0184 0 0 -0.1104 0.0184 0 0 -0.1288 0.0184 0 0 -0.2024 0.0184 0 0 -0.4231 0.0184 0 0 -0.3864 0.0184 0 0 -0.3311 0.0183 0 0 -0.2576 0.0185 0 0 -0.2208 0.0183 0 0 -0.2023 0.0185 0 0 -0.1656 0.0183 0 0 -0.1472 0.0185 0 0 -0.1288 0.0183 0 0 -0.1104 0.0184 0 0 -0.1103 0.0184 0 0 -0.092 0.0184 0 0 -0.0736 0.0184 0 0 -0.0736 0.0184 0 0 -0.0736 0.0184 0 0 -0.0552 0.0184 0 0 -0.0552 0.0184 0 0 -0.0552 0.0184 0 0 -0.0552 0.0184 0 0 -0.0551 0.0184 0 0 -0.0552 0.0184 0 0 -0.0552 0.0184 0 0 -0.0736 0.0184 0 0 -0.0736 0.0184 0 0 -0.092 0.0184 0 0 -0.092 0.0184 0 0 -0.1472 0.0184 0 0 -0.4047 -0.0184 0 0 -0.1288 -0.0184 0 0 -0.092 -0.0184 0 0 -0.0552 -0.0184 0 0 -0.0552 -0.0184 0 0 -0.0551 -0.0184 0 0 -0.0368 -0.0184 0 0 -0.0368 -0.0184 0 0 -0.0368 -0.0184 0 0 -0.0368 -0.0184 0 0 -0.0368 -0.0184 0 0 -0.0184 -0.0184 0 0 -0.0368 -0.0184 0 0 -0.0184 -0.0184 0 0 -0.0368 -0.0184 0 0 -0.0184 -0.0184 0 0 -0.0184 -0.0184 0 0 -0.0184 -0.0184 0 0 -0.0184 -0.0183 0 0 -0.0184 -0.0185 0 0 -0.0184 -0.0183 0 0 -0.0184 -0.0185 0 0 -0.0184 -0.0183 0 0 -0.0184 -0.0185 0 0 -0.0184 -0.0183 0 0 -0.0184 -0.0368 0 0 -0.0184 -0.0184 0 0 -0.0184 -0.0184 0 0 -0.0184 -0.0368 0 0 -0.0184 -0.0184 0 0 -0.0184 -0.0368 0 0 -0.0184 -0.0368 0 0 -0.0184 -0.0184 0 0 -0.0183 -0.0368 0 0 -0.0185 -0.0368 0 0 -0.0184 -0.0184 0 0 -0.0184 -0.0368 0 0 -0.0183 -0.0368 0 0 -0.0184 -0.0368 0 0 -0.0184 -0.0368 0 0 -0.0184 -0.0368 0 0 -0.0184 -0.0368 0 0 -0.0184 -0.0368 0 0 -0.0184 -0.0552 0 0 -0.0184 -0.0551 0 0 -0.0184 -0.0368 0 0 -0.0184 -0.0552 0 0 -0.0184 -0.0552 0 0 -0.0184 -0.0736 0 0 -0.0184 -0.0552 0 0 -0.0184 -0.0736 0 0 -0.0184 -0.092 0 0 -0.0184 -0.092 0 0 -0.0184 -0.1287 0 0 -0.0184 -0.2944 0 0 -0.0184 -0.0184 0 0 0.0184z"/>
   <polygon id="_557834432" class="fil1" points="6.2672,0.7133 6.2304,0.7133 6.2304,0.7317 6.1752,0.7317 6.1752,0.7501 6.1384,0.7501 6.1384,0.7685 6.1016,0.7685 6.1016,0.7869 6.0832,0.7869 6.0832,0.8053 6.0464,0.8053 6.0464,0.8237 6.028,0.8237 6.028,0.8421 6.0096,0.8421 6.0096,0.8605 5.9912,0.8605 5.9912,0.8788 5.9728,0.8788 5.9728,0.9156 5.9544,0.9156 5.9544,0.9341 5.936,0.9341 5.936,0.9709 5.9177,0.9709 5.9177,1.0444 5.8993,1.0444 5.8993,1.0812 5.8809,1.0812 5.8809,1.4308 5.8993,1.4308 5.8993,1.5412 5.9177,1.5412 5.9177,1.6148 5.936,1.6148 5.936,1.6699 5.9544,1.6699 5.9544,1.7251 5.9728,1.7251 5.9728,1.7619 5.9912,1.7619 5.9912,1.7987 6.0096,1.7987 6.0096,1.8355 6.028,1.8355 6.028,1.8539 6.0464,1.8539 6.0464,1.8907 6.0648,1.8907 6.0648,1.9091 6.0832,1.9091 6.0832,1.9275 6.1016,1.9275 6.1016,1.9459 6.12,1.9459 6.12,1.9643 6.1384,1.9643 6.1384,1.9827 6.1568,1.9827 6.1568,2.0011 6.1936,2.0011 6.1936,2.0195 6.212,2.0195 6.212,2.0379 6.2488,2.0379 6.2488,2.0563 6.304,2.0563 6.304,2.0747 6.396,2.0747 6.396,2.0931 6.5984,2.0931 6.5984,2.0747 6.6719,2.0747 6.6719,2.0563 6.7087,2.0563 6.7087,2.0379 6.7455,2.0379 6.7455,2.0195 6.7823,2.0195 6.7823,2.0011 6.8007,2.0011 6.8007,1.9827 6.8375,1.9827 6.8375,1.9643 6.8559,1.9643 6.8559,1.9459 6.8743,1.9459 6.8743,1.9091 6.8927,1.9091 6.8927,1.8907 6.9111,1.8907 6.9111,1.8539 6.9295,1.8539 6.9295,1.8171 6.9479,1.8171 6.9479,1.7619 6.9663,1.7619 6.9663,1.6515 6.9847,1.6515 6.9847,1.3204 6.9663,1.3204 6.9663,1.21 6.9479,1.21 6.9479,1.1732 6.9295,1.1732 6.9295,1.0996 6.9111,1.0996 6.9111,1.0628 6.8927,1.0628 6.8927,1.026 6.8743,1.026 6.8743,0.9892 6.8559,0.9892 6.8559,0.9524 6.8375,0.9524 6.8375,0.9156 6.8191,0.9156 6.8191,0.8973 6.8007,0.8973 6.8007,0.8788 6.7823,0.8788 6.7823,0.8605 6.7639,0.8605 6.7639,0.8421 6.7455,0.8421 6.7455,0.8237 6.7272,0.8237 6.7272,0.8053 6.7087,0.8053 6.7087,0.7869 6.6719,0.7869 6.6719,0.7685 6.6536,0.7685 6.6536,0.7501 6.6168,0.7501 6.6168,0.7317 6.58,0.7317 6.58,0.7133 6.5064,0.7133 6.5064,0.6949 6.2672,0.6949 "/>
   <polygon id="_557832560" class="fil1" points="4.685,0.7133 4.6114,0.7133 4.6114,0.7317 4.5746,0.7317 4.5746,0.7501 4.5378,0.7501 4.5378,0.7685 4.501,0.7685 4.501,0.7869 4.4827,0.7869 4.4827,0.8053 4.4459,0.8053 4.4459,0.8237 4.4275,0.8237 4.4275,0.8421 4.4091,0.8421 4.4091,0.8605 4.3907,0.8605 4.3907,0.8973 4.3723,0.8973 4.3723,0.9156 4.3539,0.9156 4.3539,0.9341 4.3355,0.9341 4.3355,0.9709 4.3171,0.9709 4.3171,1.0076 4.2987,1.0076 4.2987,1.0444 4.2803,1.0444 4.2803,1.0812 4.2619,1.0812 4.2619,1.1364 4.2435,1.1364 4.2435,1.21 4.2251,1.21 4.2251,1.3204 4.2067,1.3204 4.2067,1.6883 4.2251,1.6883 4.2251,1.7803 4.2435,1.7803 4.2435,1.8355 4.2619,1.8355 4.2619,1.8723 4.2803,1.8723 4.2803,1.8907 4.2987,1.8907 4.2987,1.9275 4.3171,1.9275 4.3171,1.9459 4.3355,1.9459 4.3355,1.9643 4.3539,1.9643 4.3539,1.9827 4.3723,1.9827 4.3723,2.0011 4.4091,2.0011 4.4091,2.0195 4.4459,2.0195 4.4459,2.0379 4.4827,2.0379 4.4827,2.0563 4.5378,2.0563 4.5378,2.0747 4.5931,2.0747 4.5931,2.0931 4.8506,2.0931 4.8506,2.0747 4.8874,2.0747 4.8874,2.0563 4.9426,2.0563 4.9426,2.0379 4.9794,2.0379 4.9794,2.0195 4.9978,2.0195 4.9978,2.0011 5.0162,2.0011 5.0162,1.9827 5.053,1.9827 5.053,1.9643 5.0714,1.9643 5.0714,1.9459 5.0898,1.9459 5.0898,1.9275 5.1082,1.9275 5.1082,1.8907 5.1266,1.8907 5.1266,1.8723 5.1449,1.8723 5.1449,1.8539 5.1634,1.8539 5.1634,1.8171 5.1817,1.8171 5.1817,1.7803 5.2002,1.7803 5.2002,1.7435 5.2185,1.7435 5.2185,1.7067 5.237,1.7067 5.237,1.6515 5.2553,1.6515 5.2553,1.578 5.2738,1.578 5.2738,1.5228 5.2921,1.5228 5.2921,1.3756 5.3105,1.3756 5.3105,1.1548 5.2921,1.1548 5.2921,1.0444 5.2738,1.0444 5.2738,0.9892 5.2553,0.9892 5.2553,0.9524 5.237,0.9524 5.237,0.9156 5.2185,0.9156 5.2185,0.8973 5.2002,0.8973 5.2002,0.8788 5.1817,0.8788 5.1817,0.8421 5.1449,0.8421 5.1449,0.8237 5.1266,0.8237 5.1266,0.8053 5.1082,0.8053 5.1082,0.7869 5.0714,0.7869 5.0714,0.7685 5.053,0.7685 5.053,0.7501 5.0162,0.7501 5.0162,0.7317 4.961,0.7317 4.961,0.7133 4.8874,0.7133 4.8874,0.6949 4.685,0.6949 "/>
   <path id="_561414680" class="fil3" d="M5.2921 1.5228l-0.0183 0 0 0.0552 -0.0185 0 0 0.0735 -0.0183 0 0 0.0552 -0.0185 0 0 0.0368 -0.0183 0 0 0.0368 -0.0185 0 0 0.0368 -0.0183 0 0 0.0368 -0.0185 0 0 0.0184 -0.0183 0 0 0.0184 -0.0184 0 0 0.0368 -0.0184 0 0 0.0184 -0.0184 0 0 0.0184 -0.0184 0 0 0.0184 -0.0368 0 0 0.0184 -0.0184 0 0 0.0184 -0.0184 0 0 0.0184 -0.0368 0 0 0.0184 -0.0552 0 0 0.0184 -0.0368 0 0 0.0184 -0.2575 0 0 -0.0184 -0.0553 0 0 -0.0184 -0.0551 0 0 -0.0184 -0.0368 0 0 -0.0184 -0.0368 0 0 -0.0184 -0.0368 0 0 -0.0184 -0.0184 0 0 -0.0184 -0.0184 0 0 -0.0184 -0.0184 0 0 -0.0184 -0.0184 0 0 -0.0368 -0.0184 0 0 -0.0184 -0.0184 0 0 -0.0368 -0.0184 0 0 -0.0552 -0.0184 0 0 -0.092 -0.0184 0 0 -0.3679 0.0184 0 0 -0.1104 0.0184 0 0 -0.0736 0.0184 0 0 -0.0552 0.0184 0 0 -0.0368 0.0184 0 0 -0.0368 0.0184 0 0 -0.0367 0.0184 0 0 -0.0368 0.0184 0 0 -0.0185 0.0184 0 0 -0.0183 0.0184 0 0 -0.0368 0.0184 0 0 -0.0184 0.0184 0 0 -0.0184 0.0184 0 0 -0.0184 0.0368 0 0 -0.0184 0.0183 0 0 -0.0184 0.0368 0 0 -0.0184 0.0368 0 0 -0.0184 0.0368 0 0 -0.0184 0.0736 0 0 -0.0184 0.2024 0 0 0.0184 0.0736 0 0 0.0184 0.0552 0 0 0.0184 0.0368 0 0 0.0184 0.0184 0 0 0.0184 0.0368 0 0 0.0184 0.0184 0 0 0.0184 0.0183 0 0 0.0184 0.0368 0 0 0.0367 0.0185 0 0 0.0185 0.0183 0 0 0.0183 0.0185 0 0 0.0368 0.0183 0 0 0.0368 0.0185 0 0 0.0552 0.0183 0 0 0.1104 0.0184 0 0 0.2208 -0.0184 0 0 0.1472zm-0.6255 -0.9383l-0.0735 0 0 0.0184 -0.0553 0 0 0.0184 -0.0368 0 0 0.0184 -0.0367 0 0 0.0184 -0.0184 0 0 0.0184 -0.0368 0 0 0.0184 -0.0184 0 0 0.0184 -0.0184 0 0 0.0184 -0.0184 0 0 0.0184 -0.0184 0 0 0.0184 -0.0184 0 0 0.0184 -0.0184 0 0 0.0184 -0.0184 0 0 0.0184 -0.0184 0 0 0.0368 -0.0184 0 0 0.0183 -0.0184 0 0 0.0368 -0.0184 0 0 0.0368 -0.0184 0 0 0.0368 -0.0184 0 0 0.0368 -0.0184 0 0 0.0552 -0.0184 0 0 0.0552 -0.0184 0 0 0.0736 -0.0184 0 0 0.092 -0.0184 0 0 0.3863 0.0184 0 0 0.092 0.0184 0 0 0.0552 0.0184 0 0 0.0552 0.0184 0 0 0.0368 0.0184 0 0 0.0184 0.0184 0 0 0.0368 0.0184 0 0 0.0184 0.0184 0 0 0.0184 0.0184 0 0 0.0184 0.0184 0 0 0.0184 0.0184 0 0 0.0184 0.0184 0 0 0.0184 0.0184 0 0 0.0184 0.0368 0 0 0.0184 0.0368 0 0 0.0184 0.0368 0 0 0.0184 0.0368 0 0 0.0184 0.0735 0 0 0.0184 0.092 0 0 0.0184 0.184 0 0 -0.0184 0.092 0 0 -0.0184 0.0552 0 0 -0.0184 0.0368 0 0 -0.0184 0.0368 0 0 -0.0184 0.0184 0 0 -0.0184 0.0368 0 0 -0.0184 0.0184 0 0 -0.0184 0.0184 0 0 -0.0184 0.0183 0 0 -0.0184 0.0185 0 0 -0.0184 0.0183 0 0 -0.0184 0.0185 0 0 -0.0184 0.0183 0 0 -0.0184 0.0185 0 0 -0.0368 0.0183 0 0 -0.0184 0.0185 0 0 -0.0368 0.0183 0 0 -0.0368 0.0184 0 0 -0.0368 0.0184 0 0 -0.0368 0.0184 0 0 -0.0552 0.0184 0 0 -0.0552 0.0184 0 0 -0.0552 0.0184 0 0 -0.0919 0.0184 0 0 -0.1656 0.0184 0 0 -0.1472 -0.0184 0 0 -0.1288 -0.0184 0 0 -0.0736 -0.0184 0 0 -0.0551 -0.0184 0 0 -0.0368 -0.0184 0 0 -0.0368 -0.0184 0 0 -0.0184 -0.0184 0 0 -0.0368 -0.0184 0 0 -0.0184 -0.0183 0 0 -0.0184 -0.0185 0 0 -0.0184 -0.0183 0 0 -0.0184 -0.0185 0 0 -0.0184 -0.0183 0 0 -0.0184 -0.0368 0 0 -0.0184 -0.0185 0 0 -0.0184 -0.0367 0 0 -0.0184 -0.0368 0 0 -0.0184 -0.0552 0 0 -0.0184 -0.0368 0 0 -0.0184 -0.092 0 0 -0.0184 -0.2208 0 0 0.0184z"/>
   <path id="_561415064" class="fil3" d="M5.8809 1.0812l0.0184 0 0 -0.0368 0.0184 0 0 -0.0735 0.0183 0 0 -0.0368 0.0184 0 0 -0.0185 0.0184 0 0 -0.0368 0.0184 0 0 -0.0183 0.0184 0 0 -0.0184 0.0184 0 0 -0.0184 0.0184 0 0 -0.0184 0.0368 0 0 -0.0184 0.0184 0 0 -0.0184 0.0368 0 0 -0.0184 0.0368 0 0 -0.0184 0.0552 0 0 -0.0184 0.0368 0 0 -0.0184 0.2392 0 0 0.0184 0.0736 0 0 0.0184 0.0368 0 0 0.0184 0.0368 0 0 0.0184 0.0183 0 0 0.0184 0.0368 0 0 0.0184 0.0185 0 0 0.0184 0.0183 0 0 0.0184 0.0184 0 0 0.0184 0.0184 0 0 0.0183 0.0184 0 0 0.0185 0.0184 0 0 0.0183 0.0184 0 0 0.0368 0.0184 0 0 0.0368 0.0184 0 0 0.0368 0.0184 0 0 0.0368 0.0184 0 0 0.0368 0.0184 0 0 0.0736 0.0184 0 0 0.0368 0.0184 0 0 0.1104 0.0184 0 0 0.3311 -0.0184 0 0 0.1104 -0.0184 0 0 0.0552 -0.0184 0 0 0.0368 -0.0184 0 0 0.0368 -0.0184 0 0 0.0184 -0.0184 0 0 0.0368 -0.0184 0 0 0.0184 -0.0184 0 0 0.0184 -0.0368 0 0 0.0184 -0.0184 0 0 0.0184 -0.0368 0 0 0.0184 -0.0368 0 0 0.0184 -0.0368 0 0 0.0184 -0.0735 0 0 0.0184 -0.2024 0 0 -0.0184 -0.092 0 0 -0.0184 -0.0552 0 0 -0.0184 -0.0368 0 0 -0.0184 -0.0184 0 0 -0.0184 -0.0368 0 0 -0.0184 -0.0184 0 0 -0.0184 -0.0184 0 0 -0.0184 -0.0184 0 0 -0.0184 -0.0184 0 0 -0.0184 -0.0184 0 0 -0.0184 -0.0184 0 0 -0.0368 -0.0184 0 0 -0.0184 -0.0184 0 0 -0.0368 -0.0184 0 0 -0.0368 -0.0184 0 0 -0.0368 -0.0184 0 0 -0.0552 -0.0184 0 0 -0.0551 -0.0183 0 0 -0.0736 -0.0184 0 0 -0.1104 -0.0184 0 0 -0.3496zm0.4047 -0.4967l-0.0736 0 0 0.0184 -0.0552 0 0 0.0184 -0.0368 0 0 0.0184 -0.0368 0 0 0.0184 -0.0368 0 0 0.0184 -0.0368 0 0 0.0184 -0.0184 0 0 0.0184 -0.0184 0 0 0.0184 -0.0184 0 0 0.0184 -0.0184 0 0 0.0184 -0.0183 0 0 0.0184 -0.0184 0 0 0.0184 -0.0184 0 0 0.0184 -0.0185 0 0 0.0368 -0.0183 0 0 0.0183 -0.0184 0 0 0.0553 -0.0184 0 0 0.0368 -0.0184 0 0 0.0551 -0.0184 0 0 0.092 -0.0184 0 0 0.2944 0.0184 0 0 0.1288 0.0184 0 0 0.0736 0.0184 0 0 0.0735 0.0184 0 0 0.0368 0.0184 0 0 0.0552 0.0183 0 0 0.0368 0.0185 0 0 0.0368 0.0184 0 0 0.0368 0.0184 0 0 0.0184 0.0183 0 0 0.0368 0.0184 0 0 0.0184 0.0184 0 0 0.0184 0.0184 0 0 0.0368 0.0184 0 0 0.0184 0.0184 0 0 0.0184 0.0368 0 0 0.0184 0.0184 0 0 0.0184 0.0184 0 0 0.0184 0.0184 0 0 0.0184 0.0368 0 0 0.0184 0.0368 0 0 0.0184 0.0368 0 0 0.0184 0.0552 0 0 0.0184 0.092 0 0 0.0184 0.184 0 0 -0.0184 0.092 0 0 -0.0184 0.0551 0 0 -0.0184 0.0552 0 0 -0.0184 0.0368 0 0 -0.0184 0.0368 0 0 -0.0184 0.0184 0 0 -0.0184 0.0368 0 0 -0.0184 0.0184 0 0 -0.0184 0.0184 0 0 -0.0184 0.0184 0 0 -0.0184 0.0184 0 0 -0.0184 0.0184 0 0 -0.0184 0.0184 0 0 -0.0368 0.0184 0 0 -0.0368 0.0184 0 0 -0.0368 0.0184 0 0 -0.0552 0.0184 0 0 -0.0736 0.0184 0 0 -0.1287 0.0184 0 0 -0.2208 -0.0184 0 0 -0.1472 -0.0184 0 0 -0.092 -0.0184 0 0 -0.0552 -0.0184 0 0 -0.0552 -0.0184 0 0 -0.0552 -0.0184 0 0 -0.0368 -0.0184 0 0 -0.0183 -0.0184 0 0 -0.0368 -0.0184 0 0 -0.0368 -0.0184 0 0 -0.0184 -0.0184 0 0 -0.0184 -0.0184 0 0 -0.0368 -0.0184 0 0 -0.0184 -0.0184 0 0 -0.0184 -0.0184 0 0 -0.0184 -0.0184 0 0 -0.0184 -0.0184 0 0 -0.0184 -0.0368 0 0 -0.0184 -0.0184 0 0 -0.0184 -0.0368 0 0 -0.0184 -0.0368 0 0 -0.0184 -0.0367 0 0 -0.0184 -0.0552 0 0 -0.0184 -0.0552 0 0 -0.0184 -0.2392 0 0 0.0184z"/>
   <polygon id="_561415088" class="fil1" points="3.4524,0.9341 3.4156,0.9341 3.4156,0.9524 3.3788,0.9524 3.3788,0.9709 3.3604,0.9709 3.3604,0.9892 3.342,0.9892 3.342,1.0076 3.3236,1.0076 3.3236,1.026 3.3052,1.026 3.3052,1.0628 3.2868,1.0628 3.2868,1.0996 3.2684,1.0996 3.2684,1.1548 3.25,1.1548 3.25,1.4308 3.2684,1.4308 3.2684,1.5044 3.2868,1.5044 3.2868,1.5596 3.3052,1.5596 3.3052,1.5963 3.3236,1.5963 3.3236,1.6332 3.342,1.6332 3.342,1.6515 3.3604,1.6515 3.3604,1.6699 3.3788,1.6699 3.3788,1.6883 3.4156,1.6883 3.4156,1.7067 3.4524,1.7067 3.4524,1.7251 3.6364,1.7251 3.6364,1.7067 3.6916,1.7067 3.6916,1.6883 3.7284,1.6883 3.7284,1.6699 3.7468,1.6699 3.7468,1.6515 3.7652,1.6515 3.7652,1.6332 3.7836,1.6332 3.7836,1.6148 3.802,1.6148 3.802,1.5963 3.8203,1.5963 3.8203,1.5596 3.8387,1.5596 3.8387,1.5044 3.8571,1.5044 3.8571,1.4124 3.8756,1.4124 3.8756,1.2284 3.8571,1.2284 3.8571,1.1364 3.8387,1.1364 3.8387,1.0812 3.8203,1.0812 3.8203,1.0444 3.802,1.0444 3.802,1.026 3.7836,1.026 3.7836,0.9892 3.7652,0.9892 3.7652,0.9709 3.7468,0.9709 3.7468,0.9524 3.71,0.9524 3.71,0.9341 3.6732,0.9341 3.6732,0.9156 3.4524,0.9156 "/>
   <polygon id="_561415184" class="fil1" points="7.5182,0.9341 7.4814,0.9341 7.4814,0.9524 7.4447,0.9524 7.4447,0.9709 7.4262,0.9709 7.4262,0.9892 7.4079,0.9892 7.4079,1.0076 7.3894,1.0076 7.3894,1.0444 7.3711,1.0444 7.3711,1.0628 7.3526,1.0628 7.3526,1.118 7.3343,1.118 7.3343,1.21 7.3158,1.21 7.3158,1.486 7.3343,1.486 7.3343,1.5412 7.3526,1.5412 7.3526,1.578 7.3711,1.578 7.3711,1.5963 7.3894,1.5963 7.3894,1.6332 7.4079,1.6332 7.4079,1.6515 7.4447,1.6515 7.4447,1.6699 7.463,1.6699 7.463,1.6883 7.4998,1.6883 7.4998,1.7067 7.5734,1.7067 7.5734,1.7251 7.739,1.7251 7.739,1.7067 7.7758,1.7067 7.7758,1.6883 7.7942,1.6883 7.7942,1.6699 7.831,1.6699 7.831,1.6332 7.8494,1.6332 7.8494,1.6148 7.8678,1.6148 7.8678,1.578 7.8862,1.578 7.8862,1.5412 7.9046,1.5412 7.9046,1.486 7.923,1.486 7.923,1.3572 7.9414,1.3572 7.9414,1.1916 7.923,1.1916 7.923,1.118 7.9046,1.118 7.9046,1.0812 7.8862,1.0812 7.8862,1.0444 7.8678,1.0444 7.8678,1.026 7.8494,1.026 7.8494,0.9892 7.831,0.9892 7.831,0.9709 7.7942,0.9709 7.7942,0.9524 7.7758,0.9524 7.7758,0.9341 7.739,0.9341 7.739,0.9156 7.5182,0.9156 "/>
   <path id="_561414968" class="fil3" d="M7.923 1.486l-0.0184 0 0 0.0552 -0.0184 0 0 0.0368 -0.0184 0 0 0.0368 -0.0184 0 0 0.0184 -0.0184 0 0 0.0367 -0.0368 0 0 0.0184 -0.0184 0 0 0.0184 -0.0368 0 0 0.0184 -0.1656 0 0 -0.0184 -0.0736 0 0 -0.0184 -0.0368 0 0 -0.0184 -0.0183 0 0 -0.0184 -0.0368 0 0 -0.0183 -0.0185 0 0 -0.0369 -0.0183 0 0 -0.0183 -0.0185 0 0 -0.0368 -0.0183 0 0 -0.0552 -0.0185 0 0 -0.276 0.0185 0 0 -0.092 0.0183 0 0 -0.0552 0.0185 0 0 -0.0184 0.0183 0 0 -0.0368 0.0185 0 0 -0.0184 0.0183 0 0 -0.0183 0.0185 0 0 -0.0185 0.0367 0 0 -0.0183 0.0368 0 0 -0.0185 0.2208 0 0 0.0185 0.0368 0 0 0.0183 0.0184 0 0 0.0185 0.0368 0 0 0.0183 0.0184 0 0 0.0368 0.0184 0 0 0.0184 0.0184 0 0 0.0368 0.0184 0 0 0.0368 0.0184 0 0 0.0736 0.0184 0 0 0.1656 -0.0184 0 0 0.1288zm-0.4048 -0.6807l-0.0552 0 0 0.0184 -0.0368 0 0 0.0184 -0.0368 0 0 0.0184 -0.0183 0 0 0.0183 -0.0368 0 0 0.0185 -0.0185 0 0 0.0368 -0.0183 0 0 0.0183 -0.0184 0 0 0.0185 -0.0184 0 0 0.0367 -0.0184 0 0 0.0552 -0.0184 0 0 0.0552 -0.0184 0 0 0.092 -0.0184 0 0 0.2392 0.0184 0 0 0.092 0.0184 0 0 0.0551 0.0184 0 0 0.0369 0.0184 0 0 0.0183 0.0184 0 0 0.0368 0.0184 0 0 0.0184 0.0183 0 0 0.0184 0.0185 0 0 0.0184 0.0183 0 0 0.0184 0.0185 0 0 0.0184 0.0368 0 0 0.0184 0.0368 0 0 0.0184 0.0367 0 0 0.0184 0.0736 0 0 0.0184 0.1656 0 0 -0.0184 0.0736 0 0 -0.0184 0.0368 0 0 -0.0184 0.0368 0 0 -0.0184 0.0184 0 0 -0.0184 0.0184 0 0 -0.0184 0.0184 0 0 -0.0184 0.0184 0 0 -0.0184 0.0184 0 0 -0.0368 0.0184 0 0 -0.0367 0.0183 0 0 -0.0369 0.0185 0 0 -0.0551 0.0184 0 0 -0.0736 0.0184 0 0 -0.1288 0.0183 0 0 -0.1104 -0.0183 0 0 -0.1104 -0.0184 0 0 -0.0552 -0.0184 0 0 -0.0368 -0.0185 0 0 -0.0368 -0.0183 0 0 -0.0368 -0.0184 0 0 -0.0183 -0.0184 0 0 -0.0185 -0.0184 0 0 -0.0183 -0.0184 0 0 -0.0185 -0.0184 0 0 -0.0183 -0.0184 0 0 -0.0184 -0.0368 0 0 -0.0184 -0.0368 0 0 -0.0184 -0.0552 0 0 -0.0184 -0.2208 0 0 0.0184z"/>
   <path id="_561415376" class="fil3" d="M3.8571 1.5044l-0.0184 0 0 0.0552 -0.0184 0 0 0.0367 -0.0183 0 0 0.0185 -0.0184 0 0 0.0184 -0.0184 0 0 0.0183 -0.0184 0 0 0.0184 -0.0184 0 0 0.0184 -0.0368 0 0 0.0184 -0.0552 0 0 0.0184 -0.184 0 0 -0.0184 -0.0368 0 0 -0.0184 -0.0368 0 0 -0.0184 -0.0184 0 0 -0.0184 -0.0184 0 0 -0.0183 -0.0184 0 0 -0.0369 -0.0184 0 0 -0.0367 -0.0184 0 0 -0.0552 -0.0184 0 0 -0.0736 -0.0184 0 0 -0.276 0.0184 0 0 -0.0552 0.0184 0 0 -0.0368 0.0184 0 0 -0.0368 0.0184 0 0 -0.0184 0.0184 0 0 -0.0184 0.0184 0 0 -0.0183 0.0184 0 0 -0.0185 0.0368 0 0 -0.0183 0.0368 0 0 -0.0185 0.2208 0 0 0.0185 0.0368 0 0 0.0183 0.0368 0 0 0.0185 0.0184 0 0 0.0183 0.0184 0 0 0.0368 0.0184 0 0 0.0184 0.0183 0 0 0.0368 0.0184 0 0 0.0552 0.0184 0 0 0.092 0.0185 0 0 0.184 -0.0185 0 0 0.092zm-0.4047 -0.6991l-0.0552 0 0 0.0184 -0.0368 0 0 0.0184 -0.0368 0 0 0.0184 -0.0184 0 0 0.0183 -0.0368 0 0 0.0185 -0.0184 0 0 0.0368 -0.0184 0 0 0.0183 -0.0184 0 0 0.0185 -0.0184 0 0 0.0367 -0.0184 0 0 0.0368 -0.0184 0 0 0.0552 -0.0183 0 0 0.0736 -0.0185 0 0 0.2208 0.0185 0 0 0.092 0.0183 0 0 0.0736 0.0184 0 0 0.0552 0.0184 0 0 0.0367 0.0184 0 0 0.0368 0.0184 0 0 0.0184 0.0184 0 0 0.0184 0.0184 0 0 0.0184 0.0184 0 0 0.0184 0.0184 0 0 0.0184 0.0184 0 0 0.0184 0.0368 0 0 0.0184 0.0368 0 0 0.0184 0.0552 0 0 0.0184 0.184 0 0 -0.0184 0.0736 0 0 -0.0184 0.0368 0 0 -0.0184 0.0368 0 0 -0.0184 0.0367 0 0 -0.0184 0.0184 0 0 -0.0184 0.0184 0 0 -0.0184 0.0185 0 0 -0.0184 0.0183 0 0 -0.0368 0.0184 0 0 -0.0184 0.0184 0 0 -0.0367 0.0184 0 0 -0.0552 0.0184 0 0 -0.0552 0.0184 0 0 -0.1104 0.0184 0 0 -0.1288 -0.0184 0 0 -0.1288 -0.0184 0 0 -0.0552 -0.0184 0 0 -0.0552 -0.0184 0 0 -0.0368 -0.0184 0 0 -0.0368 -0.0184 0 0 -0.0183 -0.0183 0 0 -0.0185 -0.0185 0 0 -0.0183 -0.0184 0 0 -0.0185 -0.0184 0 0 -0.0183 -0.0183 0 0 -0.0184 -0.0368 0 0 -0.0184 -0.0368 0 0 -0.0184 -0.0552 0 0 -0.0184 -0.2208 0 0 0.0184z"/>
   <polygon id="_561414896" class="fil1" points="8.3829,1.1364 8.3461,1.1364 8.3461,1.1548 8.3093,1.1548 8.3093,1.1732 8.2909,1.1732 8.2909,1.1916 8.2725,1.1916 8.2725,1.21 8.2541,1.21 8.2541,1.2468 8.2357,1.2468 8.2357,1.2836 8.2173,1.2836 8.2173,1.3388 8.1989,1.3388 8.1989,1.6332 8.2173,1.6332 8.2173,1.6883 8.2357,1.6883 8.2357,1.7251 8.2541,1.7251 8.2541,1.7435 8.2725,1.7435 8.2725,1.7619 8.2909,1.7619 8.2909,1.7803 8.3277,1.7803 8.3277,1.7987 8.3645,1.7987 8.3645,1.8171 8.4013,1.8171 8.4013,1.8355 8.5301,1.8355 8.5301,1.8171 8.5853,1.8171 8.5853,1.7987 8.6037,1.7987 8.6037,1.7803 8.6405,1.7803 8.6405,1.7435 8.6589,1.7435 8.6589,1.7251 8.6773,1.7251 8.6773,1.6699 8.6957,1.6699 8.6957,1.6332 8.7141,1.6332 8.7141,1.5596 8.7325,1.5596 8.7325,1.3572 8.7141,1.3572 8.7141,1.302 8.6957,1.302 8.6957,1.2652 8.6773,1.2652 8.6773,1.2284 8.6589,1.2284 8.6589,1.21 8.6405,1.21 8.6405,1.1916 8.6221,1.1916 8.6221,1.1732 8.6037,1.1732 8.6037,1.1548 8.5669,1.1548 8.5669,1.1364 8.5301,1.1364 8.5301,1.118 8.3829,1.118 "/>
   <polygon id="_561415592" class="fil1" points="2.6613,1.1364 2.6061,1.1364 2.6061,1.1548 2.5877,1.1548 2.5877,1.1732 2.5509,1.1732 2.5509,1.1916 2.5325,1.1916 2.5325,1.21 2.5141,1.21 2.5141,1.2468 2.4957,1.2468 2.4957,1.2836 2.4773,1.2836 2.4773,1.3572 2.4589,1.3572 2.4589,1.578 2.4773,1.578 2.4773,1.6515 2.4957,1.6515 2.4957,1.6883 2.5141,1.6883 2.5141,1.7251 2.5325,1.7251 2.5325,1.7619 2.5509,1.7619 2.5509,1.7803 2.5693,1.7803 2.5693,1.7987 2.6061,1.7987 2.6061,1.8171 2.6429,1.8171 2.6429,1.8355 2.7717,1.8355 2.7717,1.8171 2.8269,1.8171 2.8269,1.7987 2.8637,1.7987 2.8637,1.7803 2.8821,1.7803 2.8821,1.7619 2.9189,1.7619 2.9189,1.7251 2.9373,1.7251 2.9373,1.7067 2.9557,1.7067 2.9557,1.6699 2.9741,1.6699 2.9741,1.6148 2.9925,1.6148 2.9925,1.4124 2.9741,1.4124 2.9741,1.302 2.9557,1.302 2.9557,1.2652 2.9373,1.2652 2.9373,1.2284 2.9189,1.2284 2.9189,1.21 2.9005,1.21 2.9005,1.1916 2.8821,1.1916 2.8821,1.1732 2.8637,1.1732 2.8637,1.1548 2.8453,1.1548 2.8453,1.1364 2.8085,1.1364 2.8085,1.118 2.6613,1.118 "/>
   <path id="_561415976" class="fil3" d="M2.4589 1.3572l0.0184 0 0 -0.0736 0.0184 0 0 -0.0368 0.0184 0 0 -0.0368 0.0184 0 0 -0.0184 0.0184 0 0 -0.0184 0.0368 0 0 -0.0184 0.0184 0 0 -0.0184 0.0552 0 0 -0.0184 0.1472 0 0 0.0184 0.0368 0 0 0.0184 0.0184 0 0 0.0184 0.0184 0 0 0.0184 0.0184 0 0 0.0184 0.0184 0 0 0.0184 0.0184 0 0 0.0368 0.0184 0 0 0.0368 0.0184 0 0 0.1104 0.0184 0 0 0.2024 -0.0184 0 0 0.0551 -0.0184 0 0 0.0368 -0.0184 0 0 0.0184 -0.0184 0 0 0.0368 -0.0368 0 0 0.0184 -0.0184 0 0 0.0184 -0.0368 0 0 0.0184 -0.0552 0 0 0.0184 -0.1288 0 0 -0.0184 -0.0368 0 0 -0.0184 -0.0368 0 0 -0.0184 -0.0184 0 0 -0.0184 -0.0184 0 0 -0.0368 -0.0184 0 0 -0.0368 -0.0184 0 0 -0.0368 -0.0184 0 0 -0.0735 -0.0184 0 0 -0.2208zm0.2208 -0.3496l-0.0736 0 0 0.0184 -0.0552 0 0 0.0184 -0.0368 0 0 0.0184 -0.0184 0 0 0.0184 -0.0184 0 0 0.0184 -0.0184 0 0 0.0184 -0.0184 0 0 0.0184 -0.0183 0 0 0.0184 -0.0185 0 0 0.0368 -0.0183 0 0 0.0368 -0.0185 0 0 0.0552 -0.0183 0 0 0.0736 -0.0184 0 0 0.184 0.0184 0 0 0.092 0.0183 0 0 0.0735 0.0185 0 0 0.0368 0.0183 0 0 0.0368 0.0185 0 0 0.0368 0.0183 0 0 0.0184 0.0184 0 0 0.0184 0.0184 0 0 0.0184 0.0184 0 0 0.0184 0.0184 0 0 0.0184 0.0368 0 0 0.0184 0.0368 0 0 0.0184 0.1104 0 0 0.0184 0.0368 0 0 -0.0184 0.1104 0 0 -0.0184 0.0368 0 0 -0.0184 0.0368 0 0 -0.0184 0.0368 0 0 -0.0184 0.0184 0 0 -0.0184 0.0184 0 0 -0.0184 0.0184 0 0 -0.0184 0.0184 0 0 -0.0368 0.0183 0 0 -0.0184 0.0185 0 0 -0.0368 0.0184 0 0 -0.0552 0.0184 0 0 -0.0919 0.0183 0 0 -0.1656 -0.0183 0 0 -0.092 -0.0184 0 0 -0.0736 -0.0184 0 0 -0.0368 -0.0185 0 0 -0.0368 -0.0183 0 0 -0.0184 -0.0184 0 0 -0.0368 -0.0184 0 0 -0.0184 -0.0184 0 0 -0.0184 -0.0184 0 0 -0.0184 -0.0368 0 0 -0.0184 -0.0184 0 0 -0.0184 -0.0552 0 0 -0.0184 -0.0552 0 0 -0.0184 -0.1104 0 0 0.0184z"/>
   <path id="_561415880" class="fil3" d="M8.7141 1.6332l-0.0184 0 0 0.0367 -0.0184 0 0 0.0552 -0.0184 0 0 0.0184 -0.0184 0 0 0.0368 -0.0368 0 0 0.0184 -0.0184 0 0 0.0184 -0.0552 0 0 0.0184 -0.1288 0 0 -0.0184 -0.0368 0 0 -0.0184 -0.0368 0 0 -0.0184 -0.0368 0 0 -0.0184 -0.0184 0 0 -0.0184 -0.0184 0 0 -0.0184 -0.0184 0 0 -0.0368 -0.0184 0 0 -0.0551 -0.0184 0 0 -0.2944 0.0184 0 0 -0.0552 0.0184 0 0 -0.0368 0.0184 0 0 -0.0368 0.0184 0 0 -0.0184 0.0184 0 0 -0.0184 0.0184 0 0 -0.0184 0.0368 0 0 -0.0184 0.0368 0 0 -0.0184 0.1472 0 0 0.0184 0.0368 0 0 0.0184 0.0368 0 0 0.0184 0.0184 0 0 0.0184 0.0184 0 0 0.0184 0.0184 0 0 0.0184 0.0184 0 0 0.0368 0.0184 0 0 0.0368 0.0184 0 0 0.0552 0.0184 0 0 0.2024 -0.0184 0 0 0.0736zm-0.276 -0.6256l-0.092 0 0 0.0184 -0.0552 0 0 0.0184 -0.0368 0 0 0.0184 -0.0184 0 0 0.0184 -0.0184 0 0 0.0184 -0.0368 0 0 0.0368 -0.0184 0 0 0.0184 -0.0184 0 0 0.0368 -0.0184 0 0 0.0368 -0.0184 0 0 0.0368 -0.0183 0 0 0.092 -0.0185 0 0 0.2576 0.0185 0 0 0.0735 0.0183 0 0 0.0552 0.0184 0 0 0.0368 0.0184 0 0 0.0184 0.0184 0 0 0.0184 0.0184 0 0 0.0184 0.0184 0 0 0.0184 0.0184 0 0 0.0184 0.0184 0 0 0.0184 0.0368 0 0 0.0184 0.0368 0 0 0.0184 0.0368 0 0 0.0184 0.1104 0 0 0.0184 0.0368 0 0 -0.0184 0.1104 0 0 -0.0184 0.0368 0 0 -0.0184 0.0368 0 0 -0.0184 0.0184 0 0 -0.0184 0.0184 0 0 -0.0184 0.0184 0 0 -0.0184 0.0184 0 0 -0.0368 0.0184 0 0 -0.0184 0.0183 0 0 -0.0368 0.0184 0 0 -0.0552 0.0185 0 0 -0.0735 0.0183 0 0 -0.1472 0.0184 0 0 -0.0368 -0.0184 0 0 -0.1288 -0.0183 0 0 -0.0552 -0.0185 0 0 -0.0368 -0.0184 0 0 -0.0368 -0.0183 0 0 -0.0368 -0.0184 0 0 -0.0184 -0.0184 0 0 -0.0184 -0.0184 0 0 -0.0184 -0.0184 0 0 -0.0184 -0.0368 0 0 -0.0184 -0.0368 0 0 -0.0184 -0.0368 0 0 -0.0184 -0.092 0 0 -0.0184 -0.0552 0 0 0.0184z"/>
   <path id="_561416048" class="fil3" d="M9.3948 1.9091l-0.0184 0 0 0.0552 -0.0184 0 0 0.0368 -0.0184 0 0 0.0184 -0.0184 0 0 0.0184 -0.0184 0 0 0.0184 -0.0368 0 0 0.0184 -0.1472 0 0 -0.0184 -0.0368 0 0 -0.0184 -0.0184 0 0 -0.0184 -0.0184 0 0 -0.0184 -0.0184 0 0 -0.0184 -0.0184 0 0 -0.0368 -0.0184 0 0 -0.0736 -0.0184 0 0 -0.1656 0.0184 0 0 -0.0735 0.0184 0 0 -0.0369 0.0184 0 0 -0.0183 0.0184 0 0 -0.0368 0.0368 0 0 -0.0184 0.0368 0 0 -0.0184 0.1472 0 0 0.0184 0.0368 0 0 0.0184 0.0184 0 0 0.0184 0.0184 0 0 0.0184 0.0184 0 0 0.0183 0.0184 0 0 0.0369 0.0184 0 0 0.0551 0.0184 0 0 0.1656 -0.0184 0 0 0.0552zm-0.2944 -0.5151l-0.0552 0 0 0.0184 -0.0368 0 0 0.0184 -0.0184 0 0 0.0184 -0.0184 0 0 0.0184 -0.0184 0 0 0.0184 -0.0184 0 0 0.0184 -0.0184 0 0 0.0368 -0.0184 0 0 0.0368 -0.0184 0 0 0.0552 -0.0184 0 0 0.1103 -0.0184 0 0 0.092 0.0184 0 0 0.1288 0.0184 0 0 0.0368 0.0184 0 0 0.0368 0.0184 0 0 0.0368 0.0184 0 0 0.0184 0.0184 0 0 0.0184 0.0184 0 0 0.0184 0.0184 0 0 0.0184 0.0368 0 0 0.0184 0.0368 0 0 0.0184 0.0736 0 0 0.0184 0.1472 0 0 -0.0184 0.0552 0 0 -0.0184 0.0368 0 0 -0.0184 0.0184 0 0 -0.0184 0.0184 0 0 -0.0184 0.0184 0 0 -0.0184 0.0183 0 0 -0.0368 0.0185 0 0 -0.0368 0.0183 0 0 -0.0368 0.0185 0 0 -0.0736 0.0183 0 0 -0.1104 0.0185 0 0 -0.0736 -0.0185 0 0 -0.0919 -0.0183 0 0 -0.0552 -0.0185 0 0 -0.0368 -0.0183 0 0 -0.0368 -0.0185 0 0 -0.0184 -0.0183 0 0 -0.0184 -0.0184 0 0 -0.0184 -0.0184 0 0 -0.0184 -0.0368 0 0 -0.0184 -0.0184 0 0 -0.0184 -0.0552 0 0 -0.0184 -0.184 0 0 0.0184z"/>
   <path id="_561415712" class="fil3" d="M1.7782 1.6699l0.0184 0 0 -0.0551 0.0184 0 0 -0.0185 0.0184 0 0 -0.0367 0.0184 0 0 -0.0184 0.0368 0 0 -0.0184 0.0184 0 0 -0.0184 0.1656 0 0 0.0184 0.0368 0 0 0.0184 0.0184 0 0 0.0184 0.0184 0 0 0.0184 0.0184 0 0 0.0368 0.0184 0 0 0.0367 0.0184 0 0 0.276 -0.0184 0 0 0.0368 -0.0184 0 0 0.0368 -0.0184 0 0 0.0184 -0.0184 0 0 0.0184 -0.0368 0 0 0.0184 -0.0368 0 0 0.0184 -0.1472 0 0 -0.0184 -0.0368 0 0 -0.0184 -0.0184 0 0 -0.0184 -0.0184 0 0 -0.0368 -0.0184 0 0 -0.0368 -0.0184 0 0 -0.092 -0.0184 0 0 -0.184zm0.1288 -0.2759l-0.0552 0 0 0.0184 -0.0368 0 0 0.0184 -0.0184 0 0 0.0184 -0.0184 0 0 0.0184 -0.0184 0 0 0.0184 -0.0183 0 0 0.0184 -0.0185 0 0 0.0184 -0.0184 0 0 0.0368 -0.0184 0 0 0.0552 -0.0183 0 0 0.0735 -0.0185 0 0 0.1656 0.0185 0 0 0.092 0.0183 0 0 0.0552 0.0184 0 0 0.0368 0.0184 0 0 0.0368 0.0185 0 0 0.0184 0.0183 0 0 0.0184 0.0184 0 0 0.0184 0.0184 0 0 0.0184 0.0184 0 0 0.0184 0.0368 0 0 0.0184 0.0552 0 0 0.0184 0.1472 0 0 -0.0184 0.0552 0 0 -0.0184 0.0552 0 0 -0.0184 0.0184 0 0 -0.0184 0.0368 0 0 -0.0184 0.0184 0 0 -0.0184 0.0184 0 0 -0.0368 0.0184 0 0 -0.0184 0.0184 0 0 -0.0552 0.0184 0 0 -0.0552 0.0184 0 0 -0.2576 -0.0184 0 0 -0.0551 -0.0184 0 0 -0.0552 -0.0184 0 0 -0.0368 -0.0184 0 0 -0.0184 -0.0184 0 0 -0.0184 -0.0184 0 0 -0.0368 -0.0368 0 0 -0.0184 -0.0184 0 0 -0.0184 -0.0368 0 0 -0.0184 -0.0368 0 0 -0.0184 -0.184 0 0 0.0184z"/>
   <path id="_561415688" class="fil3" d="M9.9467 2.461l-0.0184 0 0 0.0368 -0.0184 0 0 0.0184 -0.0184 0 0 0.0184 -0.0184 0 0 0.0184 -0.0368 0 0 0.0184 -0.092 0 0 -0.0184 -0.0736 0 0 -0.0184 -0.0184 0 0 -0.0184 -0.0184 0 0 -0.0184 -0.0184 0 0 -0.0184 -0.0184 0 0 -0.0368 -0.0184 0 0 -0.2759 0.0184 0 0 -0.0368 0.0184 0 0 -0.0184 0.0184 0 0 -0.0368 0.0368 0 0 -0.0184 0.0368 0 0 -0.0184 0.1288 0 0 0.0184 0.0368 0 0 0.0184 0.0184 0 0 0.0184 0.0184 0 0 0.0184 0.0184 0 0 0.0184 0.0184 0 0 0.0736 0.0184 0 0 0.1655 -0.0184 0 0 0.092zm-0.2392 -0.5335l-0.0736 0 0 0.0184 -0.0368 0 0 0.0184 -0.0184 0 0 0.0184 -0.0184 0 0 0.0184 -0.0183 0 0 0.0184 -0.0185 0 0 0.0184 -0.0183 0 0 0.0368 -0.0185 0 0 0.0368 -0.0183 0 0 0.0736 -0.0185 0 0 0.2575 0.0185 0 0 0.0552 0.0183 0 0 0.0368 0.0185 0 0 0.0184 0.0183 0 0 0.0368 0.0185 0 0 0.0184 0.0183 0 0 0.0184 0.0184 0 0 0.0184 0.0368 0 0 0.0184 0.0368 0 0 0.0184 0.092 0 0 0.0184 0.0736 0 0 -0.0184 0.0736 0 0 -0.0184 0.0368 0 0 -0.0184 0.0368 0 0 -0.0184 0.0184 0 0 -0.0184 0.0184 0 0 -0.0368 0.0184 0 0 -0.0184 0.0184 0 0 -0.0368 0.0184 0 0 -0.0552 0.0184 0 0 -0.0736 0.0184 0 0 -0.2023 -0.0184 0 0 -0.0552 -0.0184 0 0 -0.0552 -0.0184 0 0 -0.0184 -0.0184 0 0 -0.0368 -0.0184 0 0 -0.0184 -0.0184 0 0 -0.0184 -0.0184 0 0 -0.0184 -0.0368 0 0 -0.0184 -0.0368 0 0 -0.0184 -0.0368 0 0 -0.0184 -0.1472 0 0 0.0184z"/>
   <path id="_561416720" class="fil3" d="M1.5943 2.461l-0.0184 0 0 0.0368 -0.0184 0 0 0.0184 -0.0184 0 0 0.0184 -0.0368 0 0 0.0184 -0.0368 0 0 0.0184 -0.1104 0 0 -0.0184 -0.0368 0 0 -0.0184 -0.0368 0 0 -0.0368 -0.0184 0 0 -0.0368 -0.0184 0 0 -0.0367 -0.0184 0 0 -0.2576 0.0184 0 0 -0.0368 0.0184 0 0 -0.0368 0.0184 0 0 -0.0184 0.0368 0 0 -0.0184 0.0184 0 0 -0.0184 0.1472 0 0 0.0184 0.0368 0 0 0.0184 0.0184 0 0 0.0184 0.0184 0 0 0.0184 0.0184 0 0 0.0368 0.0184 0 0 0.0552 0.0184 0 0 0.2023 -0.0184 0 0 0.0552zm-0.2576 -0.5335l-0.0552 0 0 0.0184 -0.0368 0 0 0.0184 -0.0184 0 0 0.0184 -0.0184 0 0 0.0184 -0.0184 0 0 0.0184 -0.0184 0 0 0.0184 -0.0184 0 0 0.0368 -0.0184 0 0 0.0368 -0.0184 0 0 0.0552 -0.0184 0 0 0.2391 0.0184 0 0 0.0736 0.0184 0 0 0.0368 0.0184 0 0 0.0368 0.0184 0 0 0.0368 0.0184 0 0 0.0184 0.0184 0 0 0.0184 0.0184 0 0 0.0184 0.0184 0 0 0.0184 0.0368 0 0 0.0184 0.092 0 0 0.0184 0.0736 0 0 -0.0184 0.0736 0 0 -0.0184 0.0368 0 0 -0.0184 0.0368 0 0 -0.0184 0.0184 0 0 -0.0184 0.0367 0 0 -0.0368 0.0185 0 0 -0.0184 0.0183 0 0 -0.0368 0.0184 0 0 -0.0368 0.0184 0 0 -0.0736 0.0185 0 0 -0.1839 -0.0185 0 0 -0.0736 -0.0184 0 0 -0.0552 -0.0184 0 0 -0.0368 -0.0183 0 0 -0.0184 -0.0185 0 0 -0.0368 -0.0183 0 0 -0.0184 -0.0184 0 0 -0.0184 -0.0368 0 0 -0.0184 -0.0368 0 0 -0.0184 -0.0368 0 0 -0.0184 -0.1656 0 0 0.0184z"/>
   <polygon id="_561416864" class="fil1" points="9.1188,1.5228 9.082,1.5228 9.082,1.5412 9.0452,1.5412 9.0452,1.578 9.0268,1.578 9.0268,1.5963 9.0084,1.5963 9.0084,1.6332 8.99,1.6332 8.99,1.7067 8.9716,1.7067 8.9716,1.8723 8.99,1.8723 8.99,1.9459 9.0084,1.9459 9.0084,1.9827 9.0268,1.9827 9.0268,2.0011 9.0452,2.0011 9.0452,2.0195 9.0636,2.0195 9.0636,2.0379 9.082,2.0379 9.082,2.0563 9.1188,2.0563 9.1188,2.0747 9.266,2.0747 9.266,2.0563 9.3028,2.0563 9.3028,2.0379 9.3212,2.0379 9.3212,2.0195 9.3396,2.0195 9.3396,2.0011 9.358,2.0011 9.358,1.9643 9.3764,1.9643 9.3764,1.9091 9.3948,1.9091 9.3948,1.8539 9.4132,1.8539 9.4132,1.6883 9.3948,1.6883 9.3948,1.6332 9.3764,1.6332 9.3764,1.5963 9.358,1.5963 9.358,1.578 9.3396,1.578 9.3396,1.5596 9.3212,1.5596 9.3212,1.5412 9.3028,1.5412 9.3028,1.5228 9.266,1.5228 9.266,1.5044 9.1188,1.5044 "/>
   <polygon id="_561416456" class="fil1" points="1.907,1.5228 1.8886,1.5228 1.8886,1.5412 1.8518,1.5412 1.8518,1.5596 1.8334,1.5596 1.8334,1.5963 1.815,1.5963 1.815,1.6148 1.7966,1.6148 1.7966,1.6699 1.7782,1.6699 1.7782,1.8539 1.7966,1.8539 1.7966,1.9459 1.815,1.9459 1.815,1.9827 1.8334,1.9827 1.8334,2.0195 1.8518,2.0195 1.8518,2.0379 1.8702,2.0379 1.8702,2.0563 1.907,2.0563 1.907,2.0747 2.0542,2.0747 2.0542,2.0563 2.091,2.0563 2.091,2.0379 2.1278,2.0379 2.1278,2.0195 2.1462,2.0195 2.1462,2.0011 2.1646,2.0011 2.1646,1.9643 2.183,1.9643 2.183,1.9275 2.2014,1.9275 2.2014,1.6515 2.183,1.6515 2.183,1.6148 2.1646,1.6148 2.1646,1.578 2.1462,1.578 2.1462,1.5596 2.1278,1.5596 2.1278,1.5412 2.1094,1.5412 2.1094,1.5228 2.0726,1.5228 2.0726,1.5044 1.907,1.5044 "/>
   <polygon id="_561416192" class="fil1" points="1.3367,2.0563 1.3183,2.0563 1.3183,2.0747 1.2815,2.0747 1.2815,2.0931 1.2631,2.0931 1.2631,2.1299 1.2447,2.1299 1.2447,2.1667 1.2263,2.1667 1.2263,2.4243 1.2447,2.4243 1.2447,2.461 1.2631,2.461 1.2631,2.4978 1.2815,2.4978 1.2815,2.5346 1.3183,2.5346 1.3183,2.553 1.3551,2.553 1.3551,2.5714 1.4655,2.5714 1.4655,2.553 1.5023,2.553 1.5023,2.5346 1.5391,2.5346 1.5391,2.5162 1.5575,2.5162 1.5575,2.4978 1.5759,2.4978 1.5759,2.461 1.5943,2.461 1.5943,2.4058 1.6127,2.4058 1.6127,2.2035 1.5943,2.2035 1.5943,2.1483 1.5759,2.1483 1.5759,2.1115 1.5575,2.1115 1.5575,2.0931 1.5391,2.0931 1.5391,2.0747 1.5207,2.0747 1.5207,2.0563 1.4839,2.0563 1.4839,2.0379 1.3367,2.0379 "/>
   <polygon id="_561416696" class="fil1" points="9.7075,2.0563 9.6707,2.0563 9.6707,2.0747 9.6339,2.0747 9.6339,2.1115 9.6155,2.1115 9.6155,2.1299 9.5971,2.1299 9.5971,2.1667 9.5787,2.1667 9.5787,2.4426 9.5971,2.4426 9.5971,2.4794 9.6155,2.4794 9.6155,2.4978 9.6339,2.4978 9.6339,2.5162 9.6523,2.5162 9.6523,2.5346 9.6707,2.5346 9.6707,2.553 9.7443,2.553 9.7443,2.5714 9.8363,2.5714 9.8363,2.553 9.8731,2.553 9.8731,2.5346 9.8915,2.5346 9.8915,2.5162 9.9099,2.5162 9.9099,2.4978 9.9283,2.4978 9.9283,2.461 9.9467,2.461 9.9467,2.369 9.9651,2.369 9.9651,2.2035 9.9467,2.2035 9.9467,2.1299 9.9283,2.1299 9.9283,2.1115 9.9099,2.1115 9.9099,2.0931 9.8915,2.0931 9.8915,2.0747 9.8731,2.0747 9.8731,2.0563 9.8363,2.0563 9.8363,2.0379 9.7075,2.0379 "/>
   <polygon id="_561416336" class="fil3" points="9.7075,6.4165 9.6891,6.4165 9.6891,6.6005 9.6707,6.6005 9.6707,6.9684 9.6523,6.9684 9.6523,7.3915 9.6707,7.3915 9.6707,7.4099 9.7443,7.4099 9.7443,7.3915 9.7627,7.3915 9.7627,7.3732 9.7811,7.3732 9.7811,7.0052 9.7995,7.0052 9.7995,6.6373 9.8179,6.6373 9.8179,6.3981 9.7995,6.3981 9.7995,6.3797 9.7075,6.3797 "/>
   <polygon id="_561417152" class="fil3" points="1.3367,1.5412 1.2447,1.5412 1.2447,1.5596 1.1711,1.5596 1.1711,1.578 1.1343,1.578 1.1343,1.5963 1.0975,1.5963 1.0975,1.6148 1.0607,1.6148 1.0607,1.6332 1.0239,1.6332 1.0239,1.6515 1.0055,1.6515 1.0055,1.6699 0.9871,1.6699 0.9871,1.6883 0.9688,1.6883 0.9688,1.7067 0.932,1.7067 0.932,1.7251 0.9136,1.7251 0.9136,1.7435 0.8952,1.7435 0.8952,1.7803 0.8768,1.7803 0.8768,1.7987 0.8584,1.7987 0.8584,1.8171 0.84,1.8171 0.84,1.8539 0.8216,1.8539 0.8216,1.8723 0.8032,1.8723 0.8032,1.9091 0.7848,1.9091 0.7848,1.9459 0.7664,1.9459 0.7664,2.0379 0.7848,2.0379 0.7848,2.0563 0.8584,2.0563 0.8584,2.0379 0.8768,2.0379 0.8768,2.0195 0.8952,2.0195 0.8952,1.9827 0.9136,1.9827 0.9136,1.9459 0.932,1.9459 0.932,1.9091 0.9504,1.9091 0.9504,1.8907 0.9688,1.8907 0.9688,1.8723 0.9871,1.8723 0.9871,1.8355 1.0055,1.8355 1.0055,1.8171 1.0239,1.8171 1.0239,1.7987 1.0423,1.7987 1.0423,1.7803 1.0791,1.7803 1.0791,1.7619 1.0975,1.7619 1.0975,1.7435 1.1343,1.7435 1.1343,1.7251 1.1711,1.7251 1.1711,1.7067 1.2079,1.7067 1.2079,1.6883 1.2631,1.6883 1.2631,1.6699 1.3551,1.6699 1.3551,1.6515 1.4103,1.6515 1.4103,1.6148 1.4287,1.6148 1.4287,1.578 1.4103,1.578 1.4103,1.5412 1.3735,1.5412 1.3735,1.5228 1.3367,1.5228 "/>
   <polygon id="_561417632" class="fil4" points="2.091,5.423 2.0726,5.423 2.0726,5.4414 2.0542,5.4414 2.0542,5.5518 2.0726,5.5518 2.0726,5.7358 2.091,5.7358 2.091,5.8645 2.1094,5.8645 2.1094,5.883 2.1278,5.883 2.1278,5.9013 2.183,5.9013 2.183,5.883 2.2014,5.883 2.2014,5.5886 2.183,5.5886 2.183,5.4598 2.1646,5.4598 2.1646,5.423 2.1462,5.423 2.1462,5.4046 2.091,5.4046 "/>
   <polygon id="_561417080" class="fil3" points="0.7296,2.2955 0.7112,2.2955 0.7112,2.4243 0.7296,2.4243 0.7296,2.5162 0.748,2.5162 0.748,2.5714 0.7664,2.5714 0.7664,2.6082 0.8584,2.6082 0.8584,2.5898 0.8768,2.5898 0.8768,2.4978 0.8584,2.4978 0.8584,2.4058 0.84,2.4058 0.84,2.2955 0.8216,2.2955 0.8216,2.2771 0.7296,2.2771 "/>
   <polygon id="_561417536" class="fil3" points="9.7811,5.9013 9.7443,5.9013 9.7443,5.9198 9.7259,5.9198 9.7259,6.0485 9.7075,6.0485 9.7075,6.1405 9.7259,6.1405 9.7259,6.1773 9.7627,6.1773 9.7627,6.1957 9.7811,6.1957 9.7811,6.1773 9.8179,6.1773 9.8179,6.1589 9.8363,6.1589 9.8363,6.0669 9.8547,6.0669 9.8547,5.9198 9.8363,5.9198 9.8363,5.9013 9.7995,5.9013 9.7995,5.883 9.7811,5.883 "/>
   <polygon id="_561416936" class="fil4" points="2.0174,4.9631 1.999,4.9631 1.999,4.9815 1.9806,4.9815 1.9806,5.0735 1.999,5.0735 1.999,5.147 2.0174,5.147 2.0174,5.2023 2.0358,5.2023 2.0358,5.2206 2.1094,5.2206 2.1094,5.2023 2.1278,5.2023 2.1278,5.1103 2.1094,5.1103 2.1094,4.9815 2.091,4.9815 2.091,4.9631 2.0726,4.9631 2.0726,4.9447 2.0174,4.9447 "/>
  </g>
 </g>
</svg>
