<?xml version="1.0" encoding="UTF-8"?>
<!DOCTYPE svg PUBLIC "-//W3C//DTD SVG 1.1//EN" "http://www.w3.org/Graphics/SVG/1.1/DTD/svg11.dtd">
<!-- Creator: CorelDRAW -->
<svg xmlns="http://www.w3.org/2000/svg" xml:space="preserve" width="46mm" height="10mm" style="shape-rendering:geometricPrecision; text-rendering:geometricPrecision; image-rendering:optimizeQuality; fill-rule:evenodd; clip-rule:evenodd"
viewBox="0 0 46 10"
 xmlns:xlink="http://www.w3.org/1999/xlink">
 <defs>
  <style type="text/css">
   <![CDATA[
    .fil0 {fill:#FEFEFE}
    .fil1 {fill:#FEFEFE;fill-rule:nonzero}
   ]]>
  </style>
 </defs>
 <g id="Capa_x0020_1">
  <metadata id="CorelCorpID_0Corel-Layer"/>
  <g id="_569033208">
   <path id="_569031384" class="fil0" d="M9.4802 2.4039l0.5301 0.6748c0.1514,-0.0674 0,0 0.1514,-0.1349 0.0757,0 0.1514,-0.135 0.1514,-0.135l0.7572 -1.0122 2.9531 0c-0.1514,0.27 -0.6815,0.9447 -0.9843,1.2147l-2.9531 3.6438c-0.2272,-0.3374 -0.6815,-0.8772 -0.9086,-1.2146 -0.9087,-1.0797 -2.0445,-2.4967 -2.8774,-3.6439l0.8329 0c0.3029,0.27 1.2115,1.5521 1.5144,1.8894l1.5144 1.8894c0.2272,-0.2024 2.1959,-2.9015 2.423,-3.2389l-0.9843 -0.0675c-0.1515,0.2024 -1.2115,1.552 -1.5144,1.8219 -0.1515,-0.2699 -0.3786,-0.4723 -0.6058,-0.7422l-1.8172 -2.2943 -3.1045 0 2.953 3.9137 -1.3629 1.687c-0.3029,-0.2024 -3.4074,-4.3186 -3.786,-4.791 1.0601,-0.0675 0.7572,-0.0675 1.2872,0.6073 0.3029,0.3374 0.6058,0.7423 0.8329,1.0797l1.4387 1.8894c0.1514,0.1349 0.1514,0.1349 0.3029,0.2024l0.53 -0.6073c-0.3029,-0.4723 -2.6502,-3.3739 -3.1045,-3.9812l-3.1802 0.0675c0.4543,0.6073 0.9086,1.2146 1.3629,1.8219 1.4387,1.6869 2.8017,3.5763 4.2403,5.3308l2.0445 -2.5642c0.3786,0.5398 1.5144,1.9569 1.9687,2.4967 0.1514,-0.1349 3.9374,-4.9934 4.2403,-5.3308l1.2872 -1.8219c-1.2115,0 -2.4987,-0.0675 -3.786,-0.0675 -0.9086,0 -1.1358,-0.2024 -1.5144,0.4049 -0.3028,0.3374 -0.6057,0.6748 -0.8329,1.0121z"/>
   <path id="_569032920" class="fil1" d="M14.9041 4.8157c0.254,0 0.4916,0.0482 0.7126,0.1446 0.2211,0.0964 0.414,0.227 0.5786,0.3916 0.1646,0.1646 0.2951,0.3575 0.3916,0.5785 0.0964,0.2211 0.1446,0.4563 0.1446,0.7056 0,0.2493 -0.0482,0.4845 -0.1446,0.7056 -0.0965,0.221 -0.227,0.4139 -0.3916,0.5785 -0.1646,0.1646 -0.3575,0.2952 -0.5786,0.3916 -0.221,0.0964 -0.4586,0.1446 -0.7126,0.1446 -0.254,0 -0.4915,-0.0482 -0.7126,-0.1446 -0.2211,-0.0964 -0.4139,-0.227 -0.5786,-0.3916 -0.1646,-0.1646 -0.2951,-0.3575 -0.3915,-0.5785 -0.0965,-0.2211 -0.1447,-0.4563 -0.1447,-0.7056 0,-0.2493 0.0482,-0.4845 0.1447,-0.7056 0.0964,-0.221 0.2269,-0.4139 0.3915,-0.5785 0.1647,-0.1646 0.3575,-0.2952 0.5786,-0.3916 0.2211,-0.0964 0.4586,-0.1446 0.7126,-0.1446zm0 2.801c0.1176,0 0.227,-0.0258 0.3281,-0.0776 0.1011,-0.0517 0.1905,-0.1235 0.2681,-0.2152 0.0776,-0.0917 0.1388,-0.1975 0.1835,-0.3175 0.0446,-0.1199 0.067,-0.2505 0.067,-0.3916 0,-0.1317 -0.0224,-0.2575 -0.067,-0.3774 -0.0447,-0.12 -0.1059,-0.2235 -0.1835,-0.3105 -0.0776,-0.087 -0.167,-0.1564 -0.2681,-0.2081 -0.1011,-0.0518 -0.2105,-0.0776 -0.3281,-0.0776 -0.1176,0 -0.2281,0.0258 -0.3316,0.0776 -0.1035,0.0517 -0.194,0.1211 -0.2716,0.2081 -0.0777,0.087 -0.1388,0.1905 -0.1835,0.3105 -0.0447,0.1199 -0.067,0.2457 -0.067,0.3774 0,0.1411 0.0223,0.2717 0.067,0.3916 0.0447,0.12 0.1058,0.2258 0.1835,0.3175 0.0776,0.0917 0.1681,0.1635 0.2716,0.2152 0.1035,0.0518 0.214,0.0776 0.3316,0.0776z"/>
   <path id="_5690329201" class="fil1" d="M19.963 5.0132l-0.0847 0.1411 -0.3598 0.6421 -0.0071 -0.0071c-0.1552,-0.0893 -0.3222,-0.134 -0.501,-0.134 -0.1223,0 -0.2375,0.02 -0.3457,0.0599 -0.1082,0.04 -0.2046,0.0965 -0.2893,0.1694 -0.0846,0.0729 -0.1564,0.1587 -0.2152,0.2575 -0.0587,0.0988 -0.0976,0.2046 -0.1164,0.3175l0 1.9403 -0.9595 0 0 -3.5278 0.9595 0 0 0.4586c0.2493,-0.3434 0.6139,-0.515 1.0936,-0.515 0.2823,0 0.5551,0.0658 0.8185,0.1975l0.0071 0z"/>
   <polygon id="_56903292012" class="fil1" points="20.2522,3.461 21.1836,3.461 21.1836,8.3999 20.2452,8.3999 "/>
   <path id="_569032920123" class="fil1" d="M25.3957 3.461l0 4.9389 -0.9384 0 0.0071 -1.771c0,-0.1317 -0.0271,-0.2563 -0.0812,-0.3739 -0.054,-0.1176 -0.1246,-0.2199 -0.2116,-0.3069 -0.087,-0.087 -0.1905,-0.1552 -0.3105,-0.2046 -0.1199,-0.0494 -0.2481,-0.0741 -0.3845,-0.0741 -0.1364,0 -0.2634,0.0247 -0.381,0.0741 -0.1176,0.0494 -0.2199,0.1187 -0.3069,0.2081 -0.087,0.0894 -0.1564,0.1929 -0.2082,0.3105 -0.0517,0.1175 -0.0776,0.2445 -0.0776,0.381 0,0.1364 0.0259,0.2634 0.0776,0.381 0.0518,0.1176 0.1212,0.2199 0.2082,0.3069 0.087,0.087 0.1893,0.1564 0.3069,0.2081 0.1176,0.0518 0.2446,0.0776 0.381,0.0776 0.0659,0 0.1317,-0.0047 0.1976,-0.0141 0.0658,-0.0094 0.127,-0.0282 0.1834,-0.0564l0.0071 0 0.007 0 0.3457 0.635 -0.007 0.007c-0.2305,0.1788 -0.5127,0.2681 -0.8467,0.2681 -0.254,0 -0.4915,-0.047 -0.7126,-0.1411 -0.2211,-0.094 -0.4139,-0.2234 -0.5786,-0.388 -0.1646,-0.1647 -0.2951,-0.3575 -0.3915,-0.5786 -0.0965,-0.2211 -0.1447,-0.4562 -0.1447,-0.7055 0,-0.2493 0.0482,-0.4845 0.1447,-0.7056 0.0964,-0.2211 0.2269,-0.4139 0.3915,-0.5786 0.1647,-0.1646 0.3575,-0.2939 0.5786,-0.388 0.2211,-0.0941 0.4586,-0.1411 0.7126,-0.1411 0.4798,0 0.8467,0.1787 1.1007,0.5362l0 -1.905 0.9313 0z"/>
   <path id="_5690329201234" class="fil1" d="M29.5021 5.5142c0.2258,0.0611 0.4339,0.1293 0.6244,0.2046 0.1905,0.0752 0.3551,0.167 0.4939,0.2751 0.1387,0.1082 0.2469,0.2376 0.3245,0.3881 0.0777,0.1505 0.1165,0.3293 0.1165,0.5362l0 0.0212c0,0.2258 -0.0459,0.4327 -0.1376,0.6209 -0.0917,0.1881 -0.2187,0.3492 -0.381,0.4833 -0.1623,0.134 -0.3528,0.2375 -0.5715,0.3104 -0.2188,0.0729 -0.4575,0.1094 -0.7162,0.1094 -0.2399,0 -0.4692,-0.0294 -0.6879,-0.0882 -0.2187,-0.0588 -0.4175,-0.1364 -0.5962,-0.2328 -0.1787,-0.0965 -0.3351,-0.2058 -0.4692,-0.3281 -0.134,-0.1223 -0.2364,-0.2493 -0.3069,-0.381l0.8255 -0.5221c0.0894,0.0987 0.1787,0.1869 0.2681,0.2646 0.0894,0.0776 0.1835,0.1434 0.2822,0.1975 0.0988,0.0541 0.207,0.0953 0.3246,0.1235 0.1176,0.0282 0.2469,0.0423 0.388,0.0423 0.0894,0 0.18,-0.0094 0.2717,-0.0282 0.0917,-0.0188 0.1752,-0.0494 0.2505,-0.0917 0.0752,-0.0424 0.1364,-0.0953 0.1834,-0.1588 0.047,-0.0635 0.0706,-0.1423 0.0706,-0.2363 0,-0.0659 -0.0165,-0.1294 -0.0494,-0.1905 -0.033,-0.0612 -0.0894,-0.1212 -0.1694,-0.18 -0.0799,-0.0588 -0.1881,-0.1152 -0.3245,-0.1693 -0.1364,-0.0541 -0.3081,-0.107 -0.5151,-0.1587 -0.254,-0.0612 -0.4821,-0.1306 -0.6844,-0.2082 -0.2022,-0.0776 -0.3739,-0.1717 -0.515,-0.2822 -0.1411,-0.1105 -0.2493,-0.2434 -0.3246,-0.3987 -0.0752,-0.1552 -0.1129,-0.3386 -0.1129,-0.5503 0,-0.2305 0.0435,-0.4386 0.1306,-0.6244 0.087,-0.1858 0.2081,-0.3422 0.3633,-0.4692 0.1552,-0.127 0.3375,-0.2246 0.5468,-0.2928 0.2093,-0.0682 0.4339,-0.1023 0.6738,-0.1023 0.2493,0 0.4751,0.0282 0.6774,0.0846 0.2022,0.0565 0.3833,0.1282 0.5433,0.2152 0.1599,0.0871 0.2998,0.1858 0.4198,0.2964 0.1199,0.1105 0.2199,0.2175 0.2998,0.321l-0.8114 0.5221c-0.2022,-0.1928 -0.3939,-0.3281 -0.575,-0.4057 -0.1811,-0.0776 -0.3704,-0.1164 -0.568,-0.1164 -0.1223,0 -0.2269,0.0153 -0.314,0.0459 -0.087,0.0305 -0.1587,0.0682 -0.2151,0.1129 -0.0565,0.0446 -0.1,0.0952 -0.1306,0.1517 -0.0305,0.0564 -0.0458,0.1105 -0.0458,0.1622 0,0.0941 0.0247,0.1752 0.074,0.2435 0.0494,0.0682 0.1223,0.1305 0.2188,0.1869 0.0964,0.0565 0.2163,0.1082 0.3598,0.1552 0.1435,0.0471 0.3069,0.0941 0.4904,0.1412z"/>
   <path id="_56903292012345" class="fil1" d="M33.5167 4.8157c0.254,0 0.4939,0.0482 0.7196,0.1446 0.2258,0.0964 0.4222,0.2281 0.5892,0.3951 0.167,0.167 0.2987,0.361 0.3951,0.5821 0.0964,0.2211 0.1446,0.4586 0.1446,0.7126 0,0.2587 -0.0482,0.501 -0.1446,0.7267 -0.0964,0.2258 -0.2281,0.4222 -0.3951,0.5892 -0.167,0.167 -0.3634,0.2987 -0.5892,0.3951 -0.2257,0.0964 -0.4656,0.1446 -0.7196,0.1446 -0.3481,0 -0.6374,-0.094 -0.8679,-0.2822l0 -0.007 0.3528 -0.6492 0.0071 0.0071c0.127,0.0564 0.2563,0.0847 0.388,0.0847 0.1364,0 0.2658,-0.0259 0.3881,-0.0776 0.1223,-0.0518 0.2293,-0.1235 0.321,-0.2152 0.0917,-0.0918 0.1635,-0.1988 0.2152,-0.3211 0.0517,-0.1223 0.0776,-0.254 0.0776,-0.3951 0,-0.1364 -0.0259,-0.2646 -0.0776,-0.3845 -0.0517,-0.12 -0.1235,-0.2246 -0.2152,-0.314 -0.0917,-0.0894 -0.1987,-0.1599 -0.321,-0.2117 -0.1223,-0.0517 -0.2517,-0.0776 -0.3881,-0.0776 -0.1411,0 -0.2716,0.0259 -0.3916,0.0776 -0.1199,0.0518 -0.2246,0.1223 -0.3139,0.2117 -0.0894,0.0894 -0.16,0.194 -0.2117,0.314 -0.0518,0.1199 -0.0776,0.2481 -0.0776,0.3845l0 3.1609 -0.9525 0 0 -4.9389 0.9525 0 0 0.4798c0.254,-0.3575 0.6256,-0.5362 1.1148,-0.5362z"/>
   <path id="_569032920123456" class="fil1" d="M37.4748 4.8157c0.254,0 0.4916,0.0482 0.7126,0.1446 0.2211,0.0964 0.414,0.227 0.5786,0.3916 0.1646,0.1646 0.2951,0.3575 0.3916,0.5785 0.0964,0.2211 0.1446,0.4563 0.1446,0.7056 0,0.2493 -0.0482,0.4845 -0.1446,0.7056 -0.0965,0.221 -0.227,0.4139 -0.3916,0.5785 -0.1646,0.1646 -0.3575,0.2952 -0.5786,0.3916 -0.221,0.0964 -0.4586,0.1446 -0.7126,0.1446 -0.254,0 -0.4915,-0.0482 -0.7126,-0.1446 -0.2211,-0.0964 -0.4139,-0.227 -0.5786,-0.3916 -0.1646,-0.1646 -0.2951,-0.3575 -0.3915,-0.5785 -0.0965,-0.2211 -0.1447,-0.4563 -0.1447,-0.7056 0,-0.2493 0.0482,-0.4845 0.1447,-0.7056 0.0964,-0.221 0.2269,-0.4139 0.3915,-0.5785 0.1647,-0.1646 0.3575,-0.2952 0.5786,-0.3916 0.2211,-0.0964 0.4586,-0.1446 0.7126,-0.1446zm0 2.801c0.1176,0 0.227,-0.0258 0.3281,-0.0776 0.1011,-0.0517 0.1905,-0.1235 0.2681,-0.2152 0.0776,-0.0917 0.1388,-0.1975 0.1835,-0.3175 0.0446,-0.1199 0.067,-0.2505 0.067,-0.3916 0,-0.1317 -0.0224,-0.2575 -0.067,-0.3774 -0.0447,-0.12 -0.1059,-0.2235 -0.1835,-0.3105 -0.0776,-0.087 -0.167,-0.1564 -0.2681,-0.2081 -0.1011,-0.0518 -0.2105,-0.0776 -0.3281,-0.0776 -0.1176,0 -0.2281,0.0258 -0.3316,0.0776 -0.1035,0.0517 -0.194,0.1211 -0.2716,0.2081 -0.0777,0.087 -0.1388,0.1905 -0.1835,0.3105 -0.0447,0.1199 -0.067,0.2457 -0.067,0.3774 0,0.1411 0.0223,0.2717 0.067,0.3916 0.0447,0.12 0.1058,0.2258 0.1835,0.3175 0.0776,0.0917 0.1681,0.1635 0.2716,0.2152 0.1035,0.0518 0.214,0.0776 0.3316,0.0776z"/>
   <path id="_5690329201234567" class="fil1" d="M42.5337 5.0132l-0.0847 0.1411 -0.3598 0.6421 -0.0071 -0.0071c-0.1552,-0.0893 -0.3222,-0.134 -0.501,-0.134 -0.1223,0 -0.2375,0.02 -0.3457,0.0599 -0.1082,0.04 -0.2046,0.0965 -0.2893,0.1694 -0.0846,0.0729 -0.1564,0.1587 -0.2152,0.2575 -0.0587,0.0988 -0.0976,0.2046 -0.1164,0.3175l0 1.9403 -0.9595 0 0 -3.5278 0.9595 0 0 0.4586c0.2493,-0.3434 0.6139,-0.515 1.0936,-0.515 0.2823,0 0.5551,0.0658 0.8185,0.1975l0.0071 0z"/>
   <path id="_56903292012345678" class="fil1" d="M45.2712 5.239l0 0.7832 -0.5221 0 -0.4374 -0.7832 0.9595 0zm-1.0795 1.9544c0,0.1082 0.0388,0.1999 0.1164,0.2752 0.0776,0.0752 0.1705,0.1129 0.2787,0.1129l0.6844 0 0 0.8184 -0.6844 0c-0.1834,0 -0.3563,-0.0341 -0.5186,-0.1023 -0.1622,-0.0682 -0.3034,-0.1623 -0.4233,-0.2822 -0.1199,-0.12 -0.2152,-0.2599 -0.2858,-0.4198 -0.0705,-0.16 -0.1058,-0.3317 -0.1058,-0.5151l0 -1.0583 -0.508 0 0 -0.7832 0.508 0 0 -1.2771 0.9384 0 0 3.2315z"/>
  </g>
 </g>
</svg>
