<?xml version="1.0" encoding="UTF-8"?>
<!DOCTYPE svg PUBLIC "-//W3C//DTD SVG 1.1//EN" "http://www.w3.org/Graphics/SVG/1.1/DTD/svg11.dtd">
<!-- Creator: CorelDRAW -->
<svg xmlns="http://www.w3.org/2000/svg" xml:space="preserve" width="20mm" height="10mm" style="shape-rendering:geometricPrecision; text-rendering:geometricPrecision; image-rendering:optimizeQuality; fill-rule:evenodd; clip-rule:evenodd"
viewBox="0 0 20 10"
 xmlns:xlink="http://www.w3.org/1999/xlink">
 <defs>
  <style type="text/css">
   <![CDATA[
    .str0 {stroke:#373435;stroke-width:0.2;stroke-linecap:round;stroke-linejoin:round}
    .fil0 {fill:none}
    .fil1 {fill:#373435}
    .fil2 {fill:#373435;fill-rule:nonzero}
   ]]>
  </style>
 </defs>
 <g id="Capa_x0020_1">
  <metadata id="CorelCorpID_0Corel-Layer"/>
  <g id="_561418832">
   <path id="_769975888" class="fil0 str0" d="M2.2509 5.8526c-0.1807,-0.5533 -0.0383,-1.1768 0.5767,-1.6547 2.3287,0.0058 4.9064,-1.9376 7.6129,-3.3846 2.7145,1.6229 4.0751,0.7656 6.104,0.25 0.7692,-0.1957 1.2825,-0.0215 1.288,0.5227l0.0439 4.5153 -4.1814 0.1775 0.0111 -1.1222 -2.8215 0.5114 -2.8489 0.3563c-1.21,0.1515 -4.1456,0.2454 -5.7848,-0.1717z"/>
   <path id="_769976464" class="fil1" d="M2.3289 7.2089l-0.3257 -1.3563c4.3755,-0.1892 8.6463,-0.5426 12.8589,-0.9876l0 0.3836 3.0761 0 0 1.4187 -4.6001 0.0494 0.0608 -0.6329 -2.2806 0.7841 -8.7894 0.341z"/>
   <g>
    <path id="_769975912" class="fil2" d="M5.7686 8.1566l-2.3397 1.548 -0.0718 -0.1084 2.3397 -1.548 0.0718 0.1084zm0.7226 -0.5561l-0.5144 0.8929 -0.5086 -0.7687 1.023 -0.1242z"/>
   </g>
  </g>
 </g>
</svg>
