<?xml version="1.0" encoding="UTF-8"?>
<!DOCTYPE svg PUBLIC "-//W3C//DTD SVG 1.1//EN" "http://www.w3.org/Graphics/SVG/1.1/DTD/svg11.dtd">
<!-- Creator: CorelDRAW -->
<svg xmlns="http://www.w3.org/2000/svg" xml:space="preserve" width="20mm" height="10mm" style="shape-rendering:geometricPrecision; text-rendering:geometricPrecision; image-rendering:optimizeQuality; fill-rule:evenodd; clip-rule:evenodd"
viewBox="0 0 20 10"
 xmlns:xlink="http://www.w3.org/1999/xlink">
 <defs>
  <style type="text/css">
   <![CDATA[
    .str0 {stroke:#373435;stroke-width:0.2;stroke-linecap:round;stroke-linejoin:round}
    .fil0 {fill:#373435}
    .fil1 {fill:#FEFEFE}
    .fil2 {fill:#373435;fill-rule:nonzero}
   ]]>
  </style>
 </defs>
 <g id="Capa_x0020_1">
  <metadata id="CorelCorpID_0Corel-Layer"/>
  <g id="_769984216">
   <path id="_769977112" class="fil0" d="M1.0589 6.5647c-0.2282,-0.6373 -0.0486,-1.355 0.7279,-1.9047 2.9393,0.0067 5.872,-1.3348 9.2881,-3.0008 2.2452,1.2304 4.4721,1.6911 7.0366,1.1118l1.0096 -0.2077 0.0685 5.2198 -4.1739 0.0082 0.0142 -1.2921 -3.5613 0.5886 -3.5961 0.4102c-1.5275,0.1743 -4.7446,-0.4532 -6.8136,-0.9333z"/>
   <path id="_769976728" class="fil1 str0" d="M1.9997 7.8995c-0.2081,-0.6369 -0.0442,-1.3546 0.6638,-1.9047 2.6805,0.0067 5.3549,-1.3348 8.4698,-3.0008 2.0476,1.2304 4.0785,1.6911 6.4172,1.1122l0.9202 -0.2077 0.0625 5.2194 -3.806 0.0082 0.0127 -1.2917 -3.2474 0.5886 -3.2791 0.4101c-1.3932,0.174 -4.327,-0.4535 -6.2137,-0.9336z"/>
   <g>
    <path id="_769977760" class="fil2" d="M4.6772 2.857l-2.6954 -2.0373 0.0784 -0.1038 2.6954 2.0373 -0.0784 0.1038zm0.7648 0.4965l-1.0132 -0.1881 0.5558 -0.7353 0.4574 0.9234z"/>
   </g>
  </g>
 </g>
</svg>
