<?xml version="1.0" encoding="UTF-8"?>
<!DOCTYPE svg PUBLIC "-//W3C//DTD SVG 1.1//EN" "http://www.w3.org/Graphics/SVG/1.1/DTD/svg11.dtd">
<!-- Creator: CorelDRAW -->
<svg xmlns="http://www.w3.org/2000/svg" xml:space="preserve" width="20mm" height="10mm" style="shape-rendering:geometricPrecision; text-rendering:geometricPrecision; image-rendering:optimizeQuality; fill-rule:evenodd; clip-rule:evenodd"
viewBox="0 0 20 10"
 xmlns:xlink="http://www.w3.org/1999/xlink">
 <defs>
  <style type="text/css">
   <![CDATA[
    .str0 {stroke:#373435;stroke-width:0.2}
    .str1 {stroke:#373435;stroke-width:0.25;stroke-linecap:round;stroke-linejoin:round}
    .fil0 {fill:none}
    .fil1 {fill:#373435;fill-rule:nonzero}
   ]]>
  </style>
 </defs>
 <g id="Capa_x0020_1">
  <metadata id="CorelCorpID_0Corel-Layer"/>
  <g id="_769970392">
   <path id="_769976008" class="fil0 str0" d="M13.6806 8.2098l0.1958 0.6998 5.0033 -0.2736 0 -6.1003c0,-0.6939 -0.5026,-1.1962 -1.1528,-0.8945 -2.9057,1.3486 -4.0534,1.0898 -6.352,-0.5131 -0.431,-0.3005 -0.773,-0.1696 -1.1947,0.1954 -2.7143,2.3494 -5.3933,2.9519 -7.5044,3.5585 -1.7539,0.5038 -1.4288,3.1727 0.4388,3.4404 3.522,0.5045 7.044,0.5298 10.566,-0.1126z"/>
   <path id="_769976896" class="fil0 str1" d="M2.6672 6.8977c4.887,0.9213 9.9385,0.651 15.0746,-0.1223"/>
   <g>
    <path id="_769976968" class="fil1" d="M12.3136 5.7266l-2.683 -2.028 0.0784 -0.1038 2.683 2.028 -0.0784 0.1038zm0.7648 0.4965l-1.0132 -0.1881 0.5558 -0.7353 0.4574 0.9234z"/>
   </g>
  </g>
 </g>
</svg>
