<?xml version="1.0" encoding="UTF-8"?>
<!DOCTYPE svg PUBLIC "-//W3C//DTD SVG 1.1//EN" "http://www.w3.org/Graphics/SVG/1.1/DTD/svg11.dtd">
<!-- Creator: CorelDRAW -->
<svg xmlns="http://www.w3.org/2000/svg" xml:space="preserve" width="20mm" height="10mm" style="shape-rendering:geometricPrecision; text-rendering:geometricPrecision; image-rendering:optimizeQuality; fill-rule:evenodd; clip-rule:evenodd"
viewBox="0 0 20 10"
 xmlns:xlink="http://www.w3.org/1999/xlink">
 <defs>
  <style type="text/css">
   <![CDATA[
    .str0 {stroke:#373435;stroke-width:0.2}
    .str1 {stroke:#373435;stroke-width:0.25;stroke-linecap:round;stroke-linejoin:round}
    .fil0 {fill:none}
    .fil1 {fill:#373435;fill-rule:nonzero}
   ]]>
  </style>
 </defs>
 <g id="Capa_x0020_1">
  <metadata id="CorelCorpID_0Corel-Layer"/>
  <g id="_769970488">
   <path id="_769976632" class="fil0 str0" d="M13.1984 8.0088l0.196 0.7007 5.0091 -0.2744 0 -6.1074c0,-0.6947 -0.5028,-1.198 -1.1539,-0.8956 -2.9092,1.3503 -4.0583,1.0909 -6.3597,-0.514 -0.4316,-0.3009 -0.7739,-0.1695 -1.1961,0.196 -2.7177,2.3522 -5.4,2.9555 -7.5137,3.5625 -1.7564,0.5047 -1.4309,3.1769 0.4394,3.4446 3.5263,0.5054 7.0526,0.5308 10.5789,-0.1124z"/>
   <path id="_769976800" class="fil0 str1" d="M1.793 6.6492c-0.0086,-0.4342 0.2654,-1.0886 1.0374,-1.2626 2.6322,-0.5943 5.0913,-1.7594 7.6727,-3.7977 2.1171,1.8196 4.3028,1.9879 7.0183,0.6753l0.0608 3.9195"/>
   <g>
    <path id="_769977088" class="fil1" d="M10.7766 5.0986l2.6869 2.031 -0.0784 0.1038 -2.6869 -2.031 0.0784 -0.1038zm-0.7648 -0.4965l1.0132 0.1881 -0.5558 0.7353 -0.4574 -0.9234z"/>
   </g>
  </g>
 </g>
</svg>
